<mxfile host="www.draw.io" modified="2020-02-13T03:00:15.251Z" agent="Mozilla/5.0 (Macintosh; Intel Mac OS X 10_13_6) AppleWebKit/537.36 (KHTML, like Gecko) Chrome/79.0.3945.130 Safari/537.36" etag="C3NdOyv-5q_H3rSVmXUf" version="12.6.8" type="github">
  <diagram id="gTPE7z00HM71mAyK7fE3" name="Page-1">
    <mxGraphModel dx="2013" dy="691" grid="1" gridSize="10" guides="1" tooltips="1" connect="1" arrows="1" fold="1" page="1" pageScale="1" pageWidth="827" pageHeight="1169" math="0" shadow="0">
      <root>
        <mxCell id="0"/>
        <mxCell id="1" parent="0"/>
        <mxCell id="RzjJ_zKFOmG12Z4Fz9ne-22" value="" style="group" vertex="1" connectable="0" parent="1">
          <mxGeometry x="161.5" y="318" width="570" height="50" as="geometry"/>
        </mxCell>
        <mxCell id="RzjJ_zKFOmG12Z4Fz9ne-1" value="" style="rounded=1;whiteSpace=wrap;html=1;" vertex="1" parent="RzjJ_zKFOmG12Z4Fz9ne-22">
          <mxGeometry width="570" height="50" as="geometry"/>
        </mxCell>
        <mxCell id="RzjJ_zKFOmG12Z4Fz9ne-2" value="" style="shape=image;verticalLabelPosition=bottom;labelBackgroundColor=#ffffff;verticalAlign=top;aspect=fixed;imageAspect=0;image=data:image/svg+xml,PHN2ZyB4bWxuczpjYz0iaHR0cDovL2NyZWF0aXZlY29tbW9ucy5vcmcvbnMjIiB4bWxuczpkYz0iaHR0cDovL3B1cmwub3JnL2RjL2VsZW1lbnRzLzEuMS8iIHhtbG5zOmlua3NjYXBlPSJodHRwOi8vd3d3Lmlua3NjYXBlLm9yZy9uYW1lc3BhY2VzL2lua3NjYXBlIiB4bWxuczpyZGY9Imh0dHA6Ly93d3cudzMub3JnLzE5OTkvMDIvMjItcmRmLXN5bnRheC1ucyMiIHhtbG5zOnNvZGlwb2RpPSJodHRwOi8vc29kaXBvZGkuc291cmNlZm9yZ2UubmV0L0RURC9zb2RpcG9kaS0wLmR0ZCIgeG1sbnM6c3ZnPSJodHRwOi8vd3d3LnczLm9yZy8yMDAwL3N2ZyIgeG1sbnM9Imh0dHA6Ly93d3cudzMub3JnLzIwMDAvc3ZnIiB4bWxuczp4bGluaz0iaHR0cDovL3d3dy53My5vcmcvMTk5OS94bGluayIgdmVyc2lvbj0iMS4xIiBpZD0ic3ZnNDEwMyIgaW5rc2NhcGU6dmVyc2lvbj0iMC45Mi4zICgyNDA1NTQ2LCAyMDE4LTAzLTExKSIgc29kaXBvZGk6ZG9jbmFtZT0iZGF0YV9waXBlbGluZXMuc3ZnIiB4PSIwcHgiIHk9IjBweCIgdmlld0JveD0iMCAwIDI1LjIyIDE2LjM0IiBzdHlsZT0iZW5hYmxlLWJhY2tncm91bmQ6bmV3IDAgMCAyNS4yMiAxNi4zNDsiIHhtbDpzcGFjZT0icHJlc2VydmUiPiYjeGE7PHNvZGlwb2RpOm5hbWVkdmlldyBib3JkZXJjb2xvcj0iIzY2NjY2NiIgYm9yZGVyb3BhY2l0eT0iMSIgZml0LW1hcmdpbi1ib3R0b209IjAiIGZpdC1tYXJnaW4tbGVmdD0iMCIgZml0LW1hcmdpbi1yaWdodD0iMCIgZml0LW1hcmdpbi10b3A9IjAiIGdyaWR0b2xlcmFuY2U9IjEwIiBndWlkZXRvbGVyYW5jZT0iMTAiIGlkPSJuYW1lZHZpZXc0MTA1IiBpbmtzY2FwZTpjdXJyZW50LWxheWVyPSJzdmc0MTAzIiBpbmtzY2FwZTpjeD0iMjUuMTg1MDk2IiBpbmtzY2FwZTpjeT0iNS4yMjQxOTYzIiBpbmtzY2FwZTpwYWdlb3BhY2l0eT0iMCIgaW5rc2NhcGU6cGFnZXNoYWRvdz0iMiIgaW5rc2NhcGU6d2luZG93LWhlaWdodD0iMTAxNyIgaW5rc2NhcGU6d2luZG93LW1heGltaXplZD0iMSIgaW5rc2NhcGU6d2luZG93LXdpZHRoPSIxOTIwIiBpbmtzY2FwZTp3aW5kb3cteD0iLTgiIGlua3NjYXBlOndpbmRvdy15PSItOCIgaW5rc2NhcGU6em9vbT0iMTkuODk0NjM2IiBvYmplY3R0b2xlcmFuY2U9IjEwIiBwYWdlY29sb3I9IiNmZmZmZmYiIHNob3dncmlkPSJmYWxzZSI+JiN4YTsJPC9zb2RpcG9kaTpuYW1lZHZpZXc+JiN4YTs8ZyBpZD0iZzQxMDEiIHRyYW5zZm9ybT0idHJhbnNsYXRlKDAsLTIuNDE4NjIyNWUtNSkiPiYjeGE7CTx0aXRsZSBpZD0idGl0bGU0MDgxIj5QYWdlLTE8L3RpdGxlPiYjeGE7CTxnIGlkPSJncm91cDQwMDYtMSI+JiN4YTsJCTx0aXRsZSBpZD0idGl0bGU0MDgzIj5EYXRhIFBpcGVsaW5lczwvdGl0bGU+JiN4YTsJCTxnIGlkPSJzaGFwZTQwMDctMiIgdHJhbnNmb3JtPSJ0cmFuc2xhdGUoMy43MjAzNSwtMS44NTUxNSkiPiYjeGE7CQkJPHRpdGxlIGlkPSJ0aXRsZTQwODUiPlNoZWV0LjQwMDc8L3RpdGxlPiYjeGE7CQkJPHBhdGggaWQ9InBhdGg0MDg3IiBpbmtzY2FwZTpjb25uZWN0b3ItY3VydmF0dXJlPSIwIiBzdHlsZT0iZmlsbDojM0Y1NzY1OyIgZD0iTTAsMy43MnYxMi42MmgxOS4yMlYzLjcySDB6Ii8+JiN4YTsJCTwvZz4mI3hhOwkJPGcgaWQ9InNoYXBlNDAwOC00Ij4mI3hhOwkJCTx0aXRsZSBpZD0idGl0bGU0MDkwIj5TaGVldC40MDA4PC90aXRsZT4mI3hhOwkJCTxwYXRoIGlkPSJwYXRoNDA5MiIgaW5rc2NhcGU6Y29ubmVjdG9yLWN1cnZhdHVyZT0iMCIgc3R5bGU9ImZpbGw6IzNGNTc2NTsiIGQ9Ik0wLDIuMzdjMCwxMS42MiwwLDExLjYyLDAsMTEuNjIgICAgIGMwLDEuNDIsMC45NiwyLjM1LDIuMzgsMi4zNWMxLjI4LDAsMi4zNy0wLjkzLDIuMzctMi4zNWMwLTExLjYyLDAtMTEuNjIsMC0xMS42MkM0Ljc1LDEuMTEsMy42NiwwLDIuMzgsMEMwLjk2LDAsMCwxLjExLDAsMi4zN3ogICAgICIvPiYjeGE7CQk8L2c+JiN4YTsJCTxnIGlkPSJzaGFwZTQwMDktNiIgdHJhbnNmb3JtPSJ0cmFuc2xhdGUoMjAuNjY4NikiPiYjeGE7CQkJPHRpdGxlIGlkPSJ0aXRsZTQwOTUiPlNoZWV0LjQwMDk8L3RpdGxlPiYjeGE7CQkJPHBhdGggaWQ9InBhdGg0MDk3IiBpbmtzY2FwZTpjb25uZWN0b3ItY3VydmF0dXJlPSIwIiBzdHlsZT0iZmlsbDojM0Y1NzY1OyIgZD0iTTAsMi4zN2MwLDExLjYyLDAsMTEuNjIsMCwxMS42MiAgICAgYzAsMS40MiwxLjA3LDIuMzUsMi4yNywyLjM1YzEuMjIsMCwyLjI4LTAuOTMsMi4yOC0yLjM1YzAtMTEuNjIsMC0xMS42MiwwLTExLjYyQzQuNTUsMS4xMSwzLjQ5LDAsMi4yNywwQzEuMDcsMCwwLDEuMTEsMCwyLjM3eiAgICAgIi8+JiN4YTsJCTwvZz4mI3hhOwk8L2c+JiN4YTs8L2c+JiN4YTs8L3N2Zz4=;" vertex="1" parent="RzjJ_zKFOmG12Z4Fz9ne-22">
          <mxGeometry x="22.5" y="17" width="25" height="16" as="geometry"/>
        </mxCell>
        <mxCell id="RzjJ_zKFOmG12Z4Fz9ne-3" value="" style="shape=image;verticalLabelPosition=bottom;labelBackgroundColor=#ffffff;verticalAlign=top;aspect=fixed;imageAspect=0;image=data:image/svg+xml,PHN2ZyB4bWxuczpjYz0iaHR0cDovL2NyZWF0aXZlY29tbW9ucy5vcmcvbnMjIiB4bWxuczpkYz0iaHR0cDovL3B1cmwub3JnL2RjL2VsZW1lbnRzLzEuMS8iIHhtbG5zOmlua3NjYXBlPSJodHRwOi8vd3d3Lmlua3NjYXBlLm9yZy9uYW1lc3BhY2VzL2lua3NjYXBlIiB4bWxuczpyZGY9Imh0dHA6Ly93d3cudzMub3JnLzE5OTkvMDIvMjItcmRmLXN5bnRheC1ucyMiIHhtbG5zOnNvZGlwb2RpPSJodHRwOi8vc29kaXBvZGkuc291cmNlZm9yZ2UubmV0L0RURC9zb2RpcG9kaS0wLmR0ZCIgeG1sbnM6c3ZnPSJodHRwOi8vd3d3LnczLm9yZy8yMDAwL3N2ZyIgeG1sbnM9Imh0dHA6Ly93d3cudzMub3JnLzIwMDAvc3ZnIiB4bWxuczp4bGluaz0iaHR0cDovL3d3dy53My5vcmcvMTk5OS94bGluayIgdmVyc2lvbj0iMS4xIiBpZD0ic3ZnNDEwMyIgaW5rc2NhcGU6dmVyc2lvbj0iMC45Mi4zICgyNDA1NTQ2LCAyMDE4LTAzLTExKSIgc29kaXBvZGk6ZG9jbmFtZT0iZGF0YV9waXBlbGluZXMuc3ZnIiB4PSIwcHgiIHk9IjBweCIgdmlld0JveD0iMCAwIDI1LjIyIDE2LjM0IiBzdHlsZT0iZW5hYmxlLWJhY2tncm91bmQ6bmV3IDAgMCAyNS4yMiAxNi4zNDsiIHhtbDpzcGFjZT0icHJlc2VydmUiPiYjeGE7PHNvZGlwb2RpOm5hbWVkdmlldyBib3JkZXJjb2xvcj0iIzY2NjY2NiIgYm9yZGVyb3BhY2l0eT0iMSIgZml0LW1hcmdpbi1ib3R0b209IjAiIGZpdC1tYXJnaW4tbGVmdD0iMCIgZml0LW1hcmdpbi1yaWdodD0iMCIgZml0LW1hcmdpbi10b3A9IjAiIGdyaWR0b2xlcmFuY2U9IjEwIiBndWlkZXRvbGVyYW5jZT0iMTAiIGlkPSJuYW1lZHZpZXc0MTA1IiBpbmtzY2FwZTpjdXJyZW50LWxheWVyPSJzdmc0MTAzIiBpbmtzY2FwZTpjeD0iMjUuMTg1MDk2IiBpbmtzY2FwZTpjeT0iNS4yMjQxOTYzIiBpbmtzY2FwZTpwYWdlb3BhY2l0eT0iMCIgaW5rc2NhcGU6cGFnZXNoYWRvdz0iMiIgaW5rc2NhcGU6d2luZG93LWhlaWdodD0iMTAxNyIgaW5rc2NhcGU6d2luZG93LW1heGltaXplZD0iMSIgaW5rc2NhcGU6d2luZG93LXdpZHRoPSIxOTIwIiBpbmtzY2FwZTp3aW5kb3cteD0iLTgiIGlua3NjYXBlOndpbmRvdy15PSItOCIgaW5rc2NhcGU6em9vbT0iMTkuODk0NjM2IiBvYmplY3R0b2xlcmFuY2U9IjEwIiBwYWdlY29sb3I9IiNmZmZmZmYiIHNob3dncmlkPSJmYWxzZSI+JiN4YTsJPC9zb2RpcG9kaTpuYW1lZHZpZXc+JiN4YTs8ZyBpZD0iZzQxMDEiIHRyYW5zZm9ybT0idHJhbnNsYXRlKDAsLTIuNDE4NjIyNWUtNSkiPiYjeGE7CTx0aXRsZSBpZD0idGl0bGU0MDgxIj5QYWdlLTE8L3RpdGxlPiYjeGE7CTxnIGlkPSJncm91cDQwMDYtMSI+JiN4YTsJCTx0aXRsZSBpZD0idGl0bGU0MDgzIj5EYXRhIFBpcGVsaW5lczwvdGl0bGU+JiN4YTsJCTxnIGlkPSJzaGFwZTQwMDctMiIgdHJhbnNmb3JtPSJ0cmFuc2xhdGUoMy43MjAzNSwtMS44NTUxNSkiPiYjeGE7CQkJPHRpdGxlIGlkPSJ0aXRsZTQwODUiPlNoZWV0LjQwMDc8L3RpdGxlPiYjeGE7CQkJPHBhdGggaWQ9InBhdGg0MDg3IiBpbmtzY2FwZTpjb25uZWN0b3ItY3VydmF0dXJlPSIwIiBzdHlsZT0iZmlsbDojM0Y1NzY1OyIgZD0iTTAsMy43MnYxMi42MmgxOS4yMlYzLjcySDB6Ii8+JiN4YTsJCTwvZz4mI3hhOwkJPGcgaWQ9InNoYXBlNDAwOC00Ij4mI3hhOwkJCTx0aXRsZSBpZD0idGl0bGU0MDkwIj5TaGVldC40MDA4PC90aXRsZT4mI3hhOwkJCTxwYXRoIGlkPSJwYXRoNDA5MiIgaW5rc2NhcGU6Y29ubmVjdG9yLWN1cnZhdHVyZT0iMCIgc3R5bGU9ImZpbGw6IzNGNTc2NTsiIGQ9Ik0wLDIuMzdjMCwxMS42MiwwLDExLjYyLDAsMTEuNjIgICAgIGMwLDEuNDIsMC45NiwyLjM1LDIuMzgsMi4zNWMxLjI4LDAsMi4zNy0wLjkzLDIuMzctMi4zNWMwLTExLjYyLDAtMTEuNjIsMC0xMS42MkM0Ljc1LDEuMTEsMy42NiwwLDIuMzgsMEMwLjk2LDAsMCwxLjExLDAsMi4zN3ogICAgICIvPiYjeGE7CQk8L2c+JiN4YTsJCTxnIGlkPSJzaGFwZTQwMDktNiIgdHJhbnNmb3JtPSJ0cmFuc2xhdGUoMjAuNjY4NikiPiYjeGE7CQkJPHRpdGxlIGlkPSJ0aXRsZTQwOTUiPlNoZWV0LjQwMDk8L3RpdGxlPiYjeGE7CQkJPHBhdGggaWQ9InBhdGg0MDk3IiBpbmtzY2FwZTpjb25uZWN0b3ItY3VydmF0dXJlPSIwIiBzdHlsZT0iZmlsbDojM0Y1NzY1OyIgZD0iTTAsMi4zN2MwLDExLjYyLDAsMTEuNjIsMCwxMS42MiAgICAgYzAsMS40MiwxLjA3LDIuMzUsMi4yNywyLjM1YzEuMjIsMCwyLjI4LTAuOTMsMi4yOC0yLjM1YzAtMTEuNjIsMC0xMS42MiwwLTExLjYyQzQuNTUsMS4xMSwzLjQ5LDAsMi4yNywwQzEuMDcsMCwwLDEuMTEsMCwyLjM3eiAgICAgIi8+JiN4YTsJCTwvZz4mI3hhOwk8L2c+JiN4YTs8L2c+JiN4YTs8L3N2Zz4=;" vertex="1" parent="RzjJ_zKFOmG12Z4Fz9ne-22">
          <mxGeometry x="105.5" y="17" width="25" height="16" as="geometry"/>
        </mxCell>
        <mxCell id="RzjJ_zKFOmG12Z4Fz9ne-16" value="" style="edgeStyle=orthogonalEdgeStyle;rounded=0;orthogonalLoop=1;jettySize=auto;html=1;" edge="1" parent="RzjJ_zKFOmG12Z4Fz9ne-22" source="RzjJ_zKFOmG12Z4Fz9ne-2" target="RzjJ_zKFOmG12Z4Fz9ne-3">
          <mxGeometry relative="1" as="geometry"/>
        </mxCell>
        <mxCell id="RzjJ_zKFOmG12Z4Fz9ne-4" value="" style="shape=image;verticalLabelPosition=bottom;labelBackgroundColor=#ffffff;verticalAlign=top;aspect=fixed;imageAspect=0;image=data:image/svg+xml,PHN2ZyB4bWxuczpjYz0iaHR0cDovL2NyZWF0aXZlY29tbW9ucy5vcmcvbnMjIiB4bWxuczpkYz0iaHR0cDovL3B1cmwub3JnL2RjL2VsZW1lbnRzLzEuMS8iIHhtbG5zOmlua3NjYXBlPSJodHRwOi8vd3d3Lmlua3NjYXBlLm9yZy9uYW1lc3BhY2VzL2lua3NjYXBlIiB4bWxuczpyZGY9Imh0dHA6Ly93d3cudzMub3JnLzE5OTkvMDIvMjItcmRmLXN5bnRheC1ucyMiIHhtbG5zOnNvZGlwb2RpPSJodHRwOi8vc29kaXBvZGkuc291cmNlZm9yZ2UubmV0L0RURC9zb2RpcG9kaS0wLmR0ZCIgeG1sbnM6c3ZnPSJodHRwOi8vd3d3LnczLm9yZy8yMDAwL3N2ZyIgeG1sbnM9Imh0dHA6Ly93d3cudzMub3JnLzIwMDAvc3ZnIiB4bWxuczp4bGluaz0iaHR0cDovL3d3dy53My5vcmcvMTk5OS94bGluayIgdmVyc2lvbj0iMS4xIiBpZD0ic3ZnNDEwMyIgaW5rc2NhcGU6dmVyc2lvbj0iMC45Mi4zICgyNDA1NTQ2LCAyMDE4LTAzLTExKSIgc29kaXBvZGk6ZG9jbmFtZT0iZGF0YV9waXBlbGluZXMuc3ZnIiB4PSIwcHgiIHk9IjBweCIgdmlld0JveD0iMCAwIDI1LjIyIDE2LjM0IiBzdHlsZT0iZW5hYmxlLWJhY2tncm91bmQ6bmV3IDAgMCAyNS4yMiAxNi4zNDsiIHhtbDpzcGFjZT0icHJlc2VydmUiPiYjeGE7PHNvZGlwb2RpOm5hbWVkdmlldyBib3JkZXJjb2xvcj0iIzY2NjY2NiIgYm9yZGVyb3BhY2l0eT0iMSIgZml0LW1hcmdpbi1ib3R0b209IjAiIGZpdC1tYXJnaW4tbGVmdD0iMCIgZml0LW1hcmdpbi1yaWdodD0iMCIgZml0LW1hcmdpbi10b3A9IjAiIGdyaWR0b2xlcmFuY2U9IjEwIiBndWlkZXRvbGVyYW5jZT0iMTAiIGlkPSJuYW1lZHZpZXc0MTA1IiBpbmtzY2FwZTpjdXJyZW50LWxheWVyPSJzdmc0MTAzIiBpbmtzY2FwZTpjeD0iMjUuMTg1MDk2IiBpbmtzY2FwZTpjeT0iNS4yMjQxOTYzIiBpbmtzY2FwZTpwYWdlb3BhY2l0eT0iMCIgaW5rc2NhcGU6cGFnZXNoYWRvdz0iMiIgaW5rc2NhcGU6d2luZG93LWhlaWdodD0iMTAxNyIgaW5rc2NhcGU6d2luZG93LW1heGltaXplZD0iMSIgaW5rc2NhcGU6d2luZG93LXdpZHRoPSIxOTIwIiBpbmtzY2FwZTp3aW5kb3cteD0iLTgiIGlua3NjYXBlOndpbmRvdy15PSItOCIgaW5rc2NhcGU6em9vbT0iMTkuODk0NjM2IiBvYmplY3R0b2xlcmFuY2U9IjEwIiBwYWdlY29sb3I9IiNmZmZmZmYiIHNob3dncmlkPSJmYWxzZSI+JiN4YTsJPC9zb2RpcG9kaTpuYW1lZHZpZXc+JiN4YTs8ZyBpZD0iZzQxMDEiIHRyYW5zZm9ybT0idHJhbnNsYXRlKDAsLTIuNDE4NjIyNWUtNSkiPiYjeGE7CTx0aXRsZSBpZD0idGl0bGU0MDgxIj5QYWdlLTE8L3RpdGxlPiYjeGE7CTxnIGlkPSJncm91cDQwMDYtMSI+JiN4YTsJCTx0aXRsZSBpZD0idGl0bGU0MDgzIj5EYXRhIFBpcGVsaW5lczwvdGl0bGU+JiN4YTsJCTxnIGlkPSJzaGFwZTQwMDctMiIgdHJhbnNmb3JtPSJ0cmFuc2xhdGUoMy43MjAzNSwtMS44NTUxNSkiPiYjeGE7CQkJPHRpdGxlIGlkPSJ0aXRsZTQwODUiPlNoZWV0LjQwMDc8L3RpdGxlPiYjeGE7CQkJPHBhdGggaWQ9InBhdGg0MDg3IiBpbmtzY2FwZTpjb25uZWN0b3ItY3VydmF0dXJlPSIwIiBzdHlsZT0iZmlsbDojM0Y1NzY1OyIgZD0iTTAsMy43MnYxMi42MmgxOS4yMlYzLjcySDB6Ii8+JiN4YTsJCTwvZz4mI3hhOwkJPGcgaWQ9InNoYXBlNDAwOC00Ij4mI3hhOwkJCTx0aXRsZSBpZD0idGl0bGU0MDkwIj5TaGVldC40MDA4PC90aXRsZT4mI3hhOwkJCTxwYXRoIGlkPSJwYXRoNDA5MiIgaW5rc2NhcGU6Y29ubmVjdG9yLWN1cnZhdHVyZT0iMCIgc3R5bGU9ImZpbGw6IzNGNTc2NTsiIGQ9Ik0wLDIuMzdjMCwxMS42MiwwLDExLjYyLDAsMTEuNjIgICAgIGMwLDEuNDIsMC45NiwyLjM1LDIuMzgsMi4zNWMxLjI4LDAsMi4zNy0wLjkzLDIuMzctMi4zNWMwLTExLjYyLDAtMTEuNjIsMC0xMS42MkM0Ljc1LDEuMTEsMy42NiwwLDIuMzgsMEMwLjk2LDAsMCwxLjExLDAsMi4zN3ogICAgICIvPiYjeGE7CQk8L2c+JiN4YTsJCTxnIGlkPSJzaGFwZTQwMDktNiIgdHJhbnNmb3JtPSJ0cmFuc2xhdGUoMjAuNjY4NikiPiYjeGE7CQkJPHRpdGxlIGlkPSJ0aXRsZTQwOTUiPlNoZWV0LjQwMDk8L3RpdGxlPiYjeGE7CQkJPHBhdGggaWQ9InBhdGg0MDk3IiBpbmtzY2FwZTpjb25uZWN0b3ItY3VydmF0dXJlPSIwIiBzdHlsZT0iZmlsbDojM0Y1NzY1OyIgZD0iTTAsMi4zN2MwLDExLjYyLDAsMTEuNjIsMCwxMS42MiAgICAgYzAsMS40MiwxLjA3LDIuMzUsMi4yNywyLjM1YzEuMjIsMCwyLjI4LTAuOTMsMi4yOC0yLjM1YzAtMTEuNjIsMC0xMS42MiwwLTExLjYyQzQuNTUsMS4xMSwzLjQ5LDAsMi4yNywwQzEuMDcsMCwwLDEuMTEsMCwyLjM3eiAgICAgIi8+JiN4YTsJCTwvZz4mI3hhOwk8L2c+JiN4YTs8L2c+JiN4YTs8L3N2Zz4=;" vertex="1" parent="RzjJ_zKFOmG12Z4Fz9ne-22">
          <mxGeometry x="189.5" y="17" width="25" height="16" as="geometry"/>
        </mxCell>
        <mxCell id="RzjJ_zKFOmG12Z4Fz9ne-17" value="" style="edgeStyle=orthogonalEdgeStyle;rounded=0;orthogonalLoop=1;jettySize=auto;html=1;" edge="1" parent="RzjJ_zKFOmG12Z4Fz9ne-22" source="RzjJ_zKFOmG12Z4Fz9ne-3" target="RzjJ_zKFOmG12Z4Fz9ne-4">
          <mxGeometry relative="1" as="geometry"/>
        </mxCell>
        <mxCell id="RzjJ_zKFOmG12Z4Fz9ne-5" value="" style="shape=image;verticalLabelPosition=bottom;labelBackgroundColor=#ffffff;verticalAlign=top;aspect=fixed;imageAspect=0;image=data:image/svg+xml,PHN2ZyB4bWxuczpjYz0iaHR0cDovL2NyZWF0aXZlY29tbW9ucy5vcmcvbnMjIiB4bWxuczpkYz0iaHR0cDovL3B1cmwub3JnL2RjL2VsZW1lbnRzLzEuMS8iIHhtbG5zOmlua3NjYXBlPSJodHRwOi8vd3d3Lmlua3NjYXBlLm9yZy9uYW1lc3BhY2VzL2lua3NjYXBlIiB4bWxuczpyZGY9Imh0dHA6Ly93d3cudzMub3JnLzE5OTkvMDIvMjItcmRmLXN5bnRheC1ucyMiIHhtbG5zOnNvZGlwb2RpPSJodHRwOi8vc29kaXBvZGkuc291cmNlZm9yZ2UubmV0L0RURC9zb2RpcG9kaS0wLmR0ZCIgeG1sbnM6c3ZnPSJodHRwOi8vd3d3LnczLm9yZy8yMDAwL3N2ZyIgeG1sbnM9Imh0dHA6Ly93d3cudzMub3JnLzIwMDAvc3ZnIiB4bWxuczp4bGluaz0iaHR0cDovL3d3dy53My5vcmcvMTk5OS94bGluayIgdmVyc2lvbj0iMS4xIiBpZD0ic3ZnNDEwMyIgaW5rc2NhcGU6dmVyc2lvbj0iMC45Mi4zICgyNDA1NTQ2LCAyMDE4LTAzLTExKSIgc29kaXBvZGk6ZG9jbmFtZT0iZGF0YV9waXBlbGluZXMuc3ZnIiB4PSIwcHgiIHk9IjBweCIgdmlld0JveD0iMCAwIDI1LjIyIDE2LjM0IiBzdHlsZT0iZW5hYmxlLWJhY2tncm91bmQ6bmV3IDAgMCAyNS4yMiAxNi4zNDsiIHhtbDpzcGFjZT0icHJlc2VydmUiPiYjeGE7PHNvZGlwb2RpOm5hbWVkdmlldyBib3JkZXJjb2xvcj0iIzY2NjY2NiIgYm9yZGVyb3BhY2l0eT0iMSIgZml0LW1hcmdpbi1ib3R0b209IjAiIGZpdC1tYXJnaW4tbGVmdD0iMCIgZml0LW1hcmdpbi1yaWdodD0iMCIgZml0LW1hcmdpbi10b3A9IjAiIGdyaWR0b2xlcmFuY2U9IjEwIiBndWlkZXRvbGVyYW5jZT0iMTAiIGlkPSJuYW1lZHZpZXc0MTA1IiBpbmtzY2FwZTpjdXJyZW50LWxheWVyPSJzdmc0MTAzIiBpbmtzY2FwZTpjeD0iMjUuMTg1MDk2IiBpbmtzY2FwZTpjeT0iNS4yMjQxOTYzIiBpbmtzY2FwZTpwYWdlb3BhY2l0eT0iMCIgaW5rc2NhcGU6cGFnZXNoYWRvdz0iMiIgaW5rc2NhcGU6d2luZG93LWhlaWdodD0iMTAxNyIgaW5rc2NhcGU6d2luZG93LW1heGltaXplZD0iMSIgaW5rc2NhcGU6d2luZG93LXdpZHRoPSIxOTIwIiBpbmtzY2FwZTp3aW5kb3cteD0iLTgiIGlua3NjYXBlOndpbmRvdy15PSItOCIgaW5rc2NhcGU6em9vbT0iMTkuODk0NjM2IiBvYmplY3R0b2xlcmFuY2U9IjEwIiBwYWdlY29sb3I9IiNmZmZmZmYiIHNob3dncmlkPSJmYWxzZSI+JiN4YTsJPC9zb2RpcG9kaTpuYW1lZHZpZXc+JiN4YTs8ZyBpZD0iZzQxMDEiIHRyYW5zZm9ybT0idHJhbnNsYXRlKDAsLTIuNDE4NjIyNWUtNSkiPiYjeGE7CTx0aXRsZSBpZD0idGl0bGU0MDgxIj5QYWdlLTE8L3RpdGxlPiYjeGE7CTxnIGlkPSJncm91cDQwMDYtMSI+JiN4YTsJCTx0aXRsZSBpZD0idGl0bGU0MDgzIj5EYXRhIFBpcGVsaW5lczwvdGl0bGU+JiN4YTsJCTxnIGlkPSJzaGFwZTQwMDctMiIgdHJhbnNmb3JtPSJ0cmFuc2xhdGUoMy43MjAzNSwtMS44NTUxNSkiPiYjeGE7CQkJPHRpdGxlIGlkPSJ0aXRsZTQwODUiPlNoZWV0LjQwMDc8L3RpdGxlPiYjeGE7CQkJPHBhdGggaWQ9InBhdGg0MDg3IiBpbmtzY2FwZTpjb25uZWN0b3ItY3VydmF0dXJlPSIwIiBzdHlsZT0iZmlsbDojM0Y1NzY1OyIgZD0iTTAsMy43MnYxMi42MmgxOS4yMlYzLjcySDB6Ii8+JiN4YTsJCTwvZz4mI3hhOwkJPGcgaWQ9InNoYXBlNDAwOC00Ij4mI3hhOwkJCTx0aXRsZSBpZD0idGl0bGU0MDkwIj5TaGVldC40MDA4PC90aXRsZT4mI3hhOwkJCTxwYXRoIGlkPSJwYXRoNDA5MiIgaW5rc2NhcGU6Y29ubmVjdG9yLWN1cnZhdHVyZT0iMCIgc3R5bGU9ImZpbGw6IzNGNTc2NTsiIGQ9Ik0wLDIuMzdjMCwxMS42MiwwLDExLjYyLDAsMTEuNjIgICAgIGMwLDEuNDIsMC45NiwyLjM1LDIuMzgsMi4zNWMxLjI4LDAsMi4zNy0wLjkzLDIuMzctMi4zNWMwLTExLjYyLDAtMTEuNjIsMC0xMS42MkM0Ljc1LDEuMTEsMy42NiwwLDIuMzgsMEMwLjk2LDAsMCwxLjExLDAsMi4zN3ogICAgICIvPiYjeGE7CQk8L2c+JiN4YTsJCTxnIGlkPSJzaGFwZTQwMDktNiIgdHJhbnNmb3JtPSJ0cmFuc2xhdGUoMjAuNjY4NikiPiYjeGE7CQkJPHRpdGxlIGlkPSJ0aXRsZTQwOTUiPlNoZWV0LjQwMDk8L3RpdGxlPiYjeGE7CQkJPHBhdGggaWQ9InBhdGg0MDk3IiBpbmtzY2FwZTpjb25uZWN0b3ItY3VydmF0dXJlPSIwIiBzdHlsZT0iZmlsbDojM0Y1NzY1OyIgZD0iTTAsMi4zN2MwLDExLjYyLDAsMTEuNjIsMCwxMS42MiAgICAgYzAsMS40MiwxLjA3LDIuMzUsMi4yNywyLjM1YzEuMjIsMCwyLjI4LTAuOTMsMi4yOC0yLjM1YzAtMTEuNjIsMC0xMS42MiwwLTExLjYyQzQuNTUsMS4xMSwzLjQ5LDAsMi4yNywwQzEuMDcsMCwwLDEuMTEsMCwyLjM3eiAgICAgIi8+JiN4YTsJCTwvZz4mI3hhOwk8L2c+JiN4YTs8L2c+JiN4YTs8L3N2Zz4=;" vertex="1" parent="RzjJ_zKFOmG12Z4Fz9ne-22">
          <mxGeometry x="522.5" y="17" width="25" height="16" as="geometry"/>
        </mxCell>
        <mxCell id="RzjJ_zKFOmG12Z4Fz9ne-21" value="" style="edgeStyle=orthogonalEdgeStyle;rounded=0;orthogonalLoop=1;jettySize=auto;html=1;" edge="1" parent="RzjJ_zKFOmG12Z4Fz9ne-22" source="RzjJ_zKFOmG12Z4Fz9ne-6" target="RzjJ_zKFOmG12Z4Fz9ne-5">
          <mxGeometry relative="1" as="geometry"/>
        </mxCell>
        <mxCell id="RzjJ_zKFOmG12Z4Fz9ne-6" value="" style="shape=image;verticalLabelPosition=bottom;labelBackgroundColor=#ffffff;verticalAlign=top;aspect=fixed;imageAspect=0;image=data:image/svg+xml,PHN2ZyB4bWxuczpjYz0iaHR0cDovL2NyZWF0aXZlY29tbW9ucy5vcmcvbnMjIiB4bWxuczpkYz0iaHR0cDovL3B1cmwub3JnL2RjL2VsZW1lbnRzLzEuMS8iIHhtbG5zOmlua3NjYXBlPSJodHRwOi8vd3d3Lmlua3NjYXBlLm9yZy9uYW1lc3BhY2VzL2lua3NjYXBlIiB4bWxuczpyZGY9Imh0dHA6Ly93d3cudzMub3JnLzE5OTkvMDIvMjItcmRmLXN5bnRheC1ucyMiIHhtbG5zOnNvZGlwb2RpPSJodHRwOi8vc29kaXBvZGkuc291cmNlZm9yZ2UubmV0L0RURC9zb2RpcG9kaS0wLmR0ZCIgeG1sbnM6c3ZnPSJodHRwOi8vd3d3LnczLm9yZy8yMDAwL3N2ZyIgeG1sbnM9Imh0dHA6Ly93d3cudzMub3JnLzIwMDAvc3ZnIiB4bWxuczp4bGluaz0iaHR0cDovL3d3dy53My5vcmcvMTk5OS94bGluayIgdmVyc2lvbj0iMS4xIiBpZD0ic3ZnNDEwMyIgaW5rc2NhcGU6dmVyc2lvbj0iMC45Mi4zICgyNDA1NTQ2LCAyMDE4LTAzLTExKSIgc29kaXBvZGk6ZG9jbmFtZT0iZGF0YV9waXBlbGluZXMuc3ZnIiB4PSIwcHgiIHk9IjBweCIgdmlld0JveD0iMCAwIDI1LjIyIDE2LjM0IiBzdHlsZT0iZW5hYmxlLWJhY2tncm91bmQ6bmV3IDAgMCAyNS4yMiAxNi4zNDsiIHhtbDpzcGFjZT0icHJlc2VydmUiPiYjeGE7PHNvZGlwb2RpOm5hbWVkdmlldyBib3JkZXJjb2xvcj0iIzY2NjY2NiIgYm9yZGVyb3BhY2l0eT0iMSIgZml0LW1hcmdpbi1ib3R0b209IjAiIGZpdC1tYXJnaW4tbGVmdD0iMCIgZml0LW1hcmdpbi1yaWdodD0iMCIgZml0LW1hcmdpbi10b3A9IjAiIGdyaWR0b2xlcmFuY2U9IjEwIiBndWlkZXRvbGVyYW5jZT0iMTAiIGlkPSJuYW1lZHZpZXc0MTA1IiBpbmtzY2FwZTpjdXJyZW50LWxheWVyPSJzdmc0MTAzIiBpbmtzY2FwZTpjeD0iMjUuMTg1MDk2IiBpbmtzY2FwZTpjeT0iNS4yMjQxOTYzIiBpbmtzY2FwZTpwYWdlb3BhY2l0eT0iMCIgaW5rc2NhcGU6cGFnZXNoYWRvdz0iMiIgaW5rc2NhcGU6d2luZG93LWhlaWdodD0iMTAxNyIgaW5rc2NhcGU6d2luZG93LW1heGltaXplZD0iMSIgaW5rc2NhcGU6d2luZG93LXdpZHRoPSIxOTIwIiBpbmtzY2FwZTp3aW5kb3cteD0iLTgiIGlua3NjYXBlOndpbmRvdy15PSItOCIgaW5rc2NhcGU6em9vbT0iMTkuODk0NjM2IiBvYmplY3R0b2xlcmFuY2U9IjEwIiBwYWdlY29sb3I9IiNmZmZmZmYiIHNob3dncmlkPSJmYWxzZSI+JiN4YTsJPC9zb2RpcG9kaTpuYW1lZHZpZXc+JiN4YTs8ZyBpZD0iZzQxMDEiIHRyYW5zZm9ybT0idHJhbnNsYXRlKDAsLTIuNDE4NjIyNWUtNSkiPiYjeGE7CTx0aXRsZSBpZD0idGl0bGU0MDgxIj5QYWdlLTE8L3RpdGxlPiYjeGE7CTxnIGlkPSJncm91cDQwMDYtMSI+JiN4YTsJCTx0aXRsZSBpZD0idGl0bGU0MDgzIj5EYXRhIFBpcGVsaW5lczwvdGl0bGU+JiN4YTsJCTxnIGlkPSJzaGFwZTQwMDctMiIgdHJhbnNmb3JtPSJ0cmFuc2xhdGUoMy43MjAzNSwtMS44NTUxNSkiPiYjeGE7CQkJPHRpdGxlIGlkPSJ0aXRsZTQwODUiPlNoZWV0LjQwMDc8L3RpdGxlPiYjeGE7CQkJPHBhdGggaWQ9InBhdGg0MDg3IiBpbmtzY2FwZTpjb25uZWN0b3ItY3VydmF0dXJlPSIwIiBzdHlsZT0iZmlsbDojM0Y1NzY1OyIgZD0iTTAsMy43MnYxMi42MmgxOS4yMlYzLjcySDB6Ii8+JiN4YTsJCTwvZz4mI3hhOwkJPGcgaWQ9InNoYXBlNDAwOC00Ij4mI3hhOwkJCTx0aXRsZSBpZD0idGl0bGU0MDkwIj5TaGVldC40MDA4PC90aXRsZT4mI3hhOwkJCTxwYXRoIGlkPSJwYXRoNDA5MiIgaW5rc2NhcGU6Y29ubmVjdG9yLWN1cnZhdHVyZT0iMCIgc3R5bGU9ImZpbGw6IzNGNTc2NTsiIGQ9Ik0wLDIuMzdjMCwxMS42MiwwLDExLjYyLDAsMTEuNjIgICAgIGMwLDEuNDIsMC45NiwyLjM1LDIuMzgsMi4zNWMxLjI4LDAsMi4zNy0wLjkzLDIuMzctMi4zNWMwLTExLjYyLDAtMTEuNjIsMC0xMS42MkM0Ljc1LDEuMTEsMy42NiwwLDIuMzgsMEMwLjk2LDAsMCwxLjExLDAsMi4zN3ogICAgICIvPiYjeGE7CQk8L2c+JiN4YTsJCTxnIGlkPSJzaGFwZTQwMDktNiIgdHJhbnNmb3JtPSJ0cmFuc2xhdGUoMjAuNjY4NikiPiYjeGE7CQkJPHRpdGxlIGlkPSJ0aXRsZTQwOTUiPlNoZWV0LjQwMDk8L3RpdGxlPiYjeGE7CQkJPHBhdGggaWQ9InBhdGg0MDk3IiBpbmtzY2FwZTpjb25uZWN0b3ItY3VydmF0dXJlPSIwIiBzdHlsZT0iZmlsbDojM0Y1NzY1OyIgZD0iTTAsMi4zN2MwLDExLjYyLDAsMTEuNjIsMCwxMS42MiAgICAgYzAsMS40MiwxLjA3LDIuMzUsMi4yNywyLjM1YzEuMjIsMCwyLjI4LTAuOTMsMi4yOC0yLjM1YzAtMTEuNjIsMC0xMS42MiwwLTExLjYyQzQuNTUsMS4xMSwzLjQ5LDAsMi4yNywwQzEuMDcsMCwwLDEuMTEsMCwyLjM3eiAgICAgIi8+JiN4YTsJCTwvZz4mI3hhOwk8L2c+JiN4YTs8L2c+JiN4YTs8L3N2Zz4=;" vertex="1" parent="RzjJ_zKFOmG12Z4Fz9ne-22">
          <mxGeometry x="439.5" y="17" width="25" height="16" as="geometry"/>
        </mxCell>
        <mxCell id="RzjJ_zKFOmG12Z4Fz9ne-20" value="" style="edgeStyle=orthogonalEdgeStyle;rounded=0;orthogonalLoop=1;jettySize=auto;html=1;" edge="1" parent="RzjJ_zKFOmG12Z4Fz9ne-22" source="RzjJ_zKFOmG12Z4Fz9ne-7" target="RzjJ_zKFOmG12Z4Fz9ne-6">
          <mxGeometry relative="1" as="geometry"/>
        </mxCell>
        <mxCell id="RzjJ_zKFOmG12Z4Fz9ne-7" value="" style="shape=image;verticalLabelPosition=bottom;labelBackgroundColor=#ffffff;verticalAlign=top;aspect=fixed;imageAspect=0;image=data:image/svg+xml,PHN2ZyB4bWxuczpjYz0iaHR0cDovL2NyZWF0aXZlY29tbW9ucy5vcmcvbnMjIiB4bWxuczpkYz0iaHR0cDovL3B1cmwub3JnL2RjL2VsZW1lbnRzLzEuMS8iIHhtbG5zOmlua3NjYXBlPSJodHRwOi8vd3d3Lmlua3NjYXBlLm9yZy9uYW1lc3BhY2VzL2lua3NjYXBlIiB4bWxuczpyZGY9Imh0dHA6Ly93d3cudzMub3JnLzE5OTkvMDIvMjItcmRmLXN5bnRheC1ucyMiIHhtbG5zOnNvZGlwb2RpPSJodHRwOi8vc29kaXBvZGkuc291cmNlZm9yZ2UubmV0L0RURC9zb2RpcG9kaS0wLmR0ZCIgeG1sbnM6c3ZnPSJodHRwOi8vd3d3LnczLm9yZy8yMDAwL3N2ZyIgeG1sbnM9Imh0dHA6Ly93d3cudzMub3JnLzIwMDAvc3ZnIiB4bWxuczp4bGluaz0iaHR0cDovL3d3dy53My5vcmcvMTk5OS94bGluayIgdmVyc2lvbj0iMS4xIiBpZD0ic3ZnNDEwMyIgaW5rc2NhcGU6dmVyc2lvbj0iMC45Mi4zICgyNDA1NTQ2LCAyMDE4LTAzLTExKSIgc29kaXBvZGk6ZG9jbmFtZT0iZGF0YV9waXBlbGluZXMuc3ZnIiB4PSIwcHgiIHk9IjBweCIgdmlld0JveD0iMCAwIDI1LjIyIDE2LjM0IiBzdHlsZT0iZW5hYmxlLWJhY2tncm91bmQ6bmV3IDAgMCAyNS4yMiAxNi4zNDsiIHhtbDpzcGFjZT0icHJlc2VydmUiPiYjeGE7PHNvZGlwb2RpOm5hbWVkdmlldyBib3JkZXJjb2xvcj0iIzY2NjY2NiIgYm9yZGVyb3BhY2l0eT0iMSIgZml0LW1hcmdpbi1ib3R0b209IjAiIGZpdC1tYXJnaW4tbGVmdD0iMCIgZml0LW1hcmdpbi1yaWdodD0iMCIgZml0LW1hcmdpbi10b3A9IjAiIGdyaWR0b2xlcmFuY2U9IjEwIiBndWlkZXRvbGVyYW5jZT0iMTAiIGlkPSJuYW1lZHZpZXc0MTA1IiBpbmtzY2FwZTpjdXJyZW50LWxheWVyPSJzdmc0MTAzIiBpbmtzY2FwZTpjeD0iMjUuMTg1MDk2IiBpbmtzY2FwZTpjeT0iNS4yMjQxOTYzIiBpbmtzY2FwZTpwYWdlb3BhY2l0eT0iMCIgaW5rc2NhcGU6cGFnZXNoYWRvdz0iMiIgaW5rc2NhcGU6d2luZG93LWhlaWdodD0iMTAxNyIgaW5rc2NhcGU6d2luZG93LW1heGltaXplZD0iMSIgaW5rc2NhcGU6d2luZG93LXdpZHRoPSIxOTIwIiBpbmtzY2FwZTp3aW5kb3cteD0iLTgiIGlua3NjYXBlOndpbmRvdy15PSItOCIgaW5rc2NhcGU6em9vbT0iMTkuODk0NjM2IiBvYmplY3R0b2xlcmFuY2U9IjEwIiBwYWdlY29sb3I9IiNmZmZmZmYiIHNob3dncmlkPSJmYWxzZSI+JiN4YTsJPC9zb2RpcG9kaTpuYW1lZHZpZXc+JiN4YTs8ZyBpZD0iZzQxMDEiIHRyYW5zZm9ybT0idHJhbnNsYXRlKDAsLTIuNDE4NjIyNWUtNSkiPiYjeGE7CTx0aXRsZSBpZD0idGl0bGU0MDgxIj5QYWdlLTE8L3RpdGxlPiYjeGE7CTxnIGlkPSJncm91cDQwMDYtMSI+JiN4YTsJCTx0aXRsZSBpZD0idGl0bGU0MDgzIj5EYXRhIFBpcGVsaW5lczwvdGl0bGU+JiN4YTsJCTxnIGlkPSJzaGFwZTQwMDctMiIgdHJhbnNmb3JtPSJ0cmFuc2xhdGUoMy43MjAzNSwtMS44NTUxNSkiPiYjeGE7CQkJPHRpdGxlIGlkPSJ0aXRsZTQwODUiPlNoZWV0LjQwMDc8L3RpdGxlPiYjeGE7CQkJPHBhdGggaWQ9InBhdGg0MDg3IiBpbmtzY2FwZTpjb25uZWN0b3ItY3VydmF0dXJlPSIwIiBzdHlsZT0iZmlsbDojM0Y1NzY1OyIgZD0iTTAsMy43MnYxMi42MmgxOS4yMlYzLjcySDB6Ii8+JiN4YTsJCTwvZz4mI3hhOwkJPGcgaWQ9InNoYXBlNDAwOC00Ij4mI3hhOwkJCTx0aXRsZSBpZD0idGl0bGU0MDkwIj5TaGVldC40MDA4PC90aXRsZT4mI3hhOwkJCTxwYXRoIGlkPSJwYXRoNDA5MiIgaW5rc2NhcGU6Y29ubmVjdG9yLWN1cnZhdHVyZT0iMCIgc3R5bGU9ImZpbGw6IzNGNTc2NTsiIGQ9Ik0wLDIuMzdjMCwxMS42MiwwLDExLjYyLDAsMTEuNjIgICAgIGMwLDEuNDIsMC45NiwyLjM1LDIuMzgsMi4zNWMxLjI4LDAsMi4zNy0wLjkzLDIuMzctMi4zNWMwLTExLjYyLDAtMTEuNjIsMC0xMS42MkM0Ljc1LDEuMTEsMy42NiwwLDIuMzgsMEMwLjk2LDAsMCwxLjExLDAsMi4zN3ogICAgICIvPiYjeGE7CQk8L2c+JiN4YTsJCTxnIGlkPSJzaGFwZTQwMDktNiIgdHJhbnNmb3JtPSJ0cmFuc2xhdGUoMjAuNjY4NikiPiYjeGE7CQkJPHRpdGxlIGlkPSJ0aXRsZTQwOTUiPlNoZWV0LjQwMDk8L3RpdGxlPiYjeGE7CQkJPHBhdGggaWQ9InBhdGg0MDk3IiBpbmtzY2FwZTpjb25uZWN0b3ItY3VydmF0dXJlPSIwIiBzdHlsZT0iZmlsbDojM0Y1NzY1OyIgZD0iTTAsMi4zN2MwLDExLjYyLDAsMTEuNjIsMCwxMS42MiAgICAgYzAsMS40MiwxLjA3LDIuMzUsMi4yNywyLjM1YzEuMjIsMCwyLjI4LTAuOTMsMi4yOC0yLjM1YzAtMTEuNjIsMC0xMS42MiwwLTExLjYyQzQuNTUsMS4xMSwzLjQ5LDAsMi4yNywwQzEuMDcsMCwwLDEuMTEsMCwyLjM3eiAgICAgIi8+JiN4YTsJCTwvZz4mI3hhOwk8L2c+JiN4YTs8L2c+JiN4YTs8L3N2Zz4=;" vertex="1" parent="RzjJ_zKFOmG12Z4Fz9ne-22">
          <mxGeometry x="355.5" y="17" width="25" height="16" as="geometry"/>
        </mxCell>
        <mxCell id="RzjJ_zKFOmG12Z4Fz9ne-19" value="" style="edgeStyle=orthogonalEdgeStyle;rounded=0;orthogonalLoop=1;jettySize=auto;html=1;" edge="1" parent="RzjJ_zKFOmG12Z4Fz9ne-22" source="RzjJ_zKFOmG12Z4Fz9ne-8" target="RzjJ_zKFOmG12Z4Fz9ne-7">
          <mxGeometry relative="1" as="geometry"/>
        </mxCell>
        <mxCell id="RzjJ_zKFOmG12Z4Fz9ne-8" value="" style="shape=image;verticalLabelPosition=bottom;labelBackgroundColor=#ffffff;verticalAlign=top;aspect=fixed;imageAspect=0;image=data:image/svg+xml,PHN2ZyB4bWxuczpjYz0iaHR0cDovL2NyZWF0aXZlY29tbW9ucy5vcmcvbnMjIiB4bWxuczpkYz0iaHR0cDovL3B1cmwub3JnL2RjL2VsZW1lbnRzLzEuMS8iIHhtbG5zOmlua3NjYXBlPSJodHRwOi8vd3d3Lmlua3NjYXBlLm9yZy9uYW1lc3BhY2VzL2lua3NjYXBlIiB4bWxuczpyZGY9Imh0dHA6Ly93d3cudzMub3JnLzE5OTkvMDIvMjItcmRmLXN5bnRheC1ucyMiIHhtbG5zOnNvZGlwb2RpPSJodHRwOi8vc29kaXBvZGkuc291cmNlZm9yZ2UubmV0L0RURC9zb2RpcG9kaS0wLmR0ZCIgeG1sbnM6c3ZnPSJodHRwOi8vd3d3LnczLm9yZy8yMDAwL3N2ZyIgeG1sbnM9Imh0dHA6Ly93d3cudzMub3JnLzIwMDAvc3ZnIiB4bWxuczp4bGluaz0iaHR0cDovL3d3dy53My5vcmcvMTk5OS94bGluayIgdmVyc2lvbj0iMS4xIiBpZD0ic3ZnNDEwMyIgaW5rc2NhcGU6dmVyc2lvbj0iMC45Mi4zICgyNDA1NTQ2LCAyMDE4LTAzLTExKSIgc29kaXBvZGk6ZG9jbmFtZT0iZGF0YV9waXBlbGluZXMuc3ZnIiB4PSIwcHgiIHk9IjBweCIgdmlld0JveD0iMCAwIDI1LjIyIDE2LjM0IiBzdHlsZT0iZW5hYmxlLWJhY2tncm91bmQ6bmV3IDAgMCAyNS4yMiAxNi4zNDsiIHhtbDpzcGFjZT0icHJlc2VydmUiPiYjeGE7PHNvZGlwb2RpOm5hbWVkdmlldyBib3JkZXJjb2xvcj0iIzY2NjY2NiIgYm9yZGVyb3BhY2l0eT0iMSIgZml0LW1hcmdpbi1ib3R0b209IjAiIGZpdC1tYXJnaW4tbGVmdD0iMCIgZml0LW1hcmdpbi1yaWdodD0iMCIgZml0LW1hcmdpbi10b3A9IjAiIGdyaWR0b2xlcmFuY2U9IjEwIiBndWlkZXRvbGVyYW5jZT0iMTAiIGlkPSJuYW1lZHZpZXc0MTA1IiBpbmtzY2FwZTpjdXJyZW50LWxheWVyPSJzdmc0MTAzIiBpbmtzY2FwZTpjeD0iMjUuMTg1MDk2IiBpbmtzY2FwZTpjeT0iNS4yMjQxOTYzIiBpbmtzY2FwZTpwYWdlb3BhY2l0eT0iMCIgaW5rc2NhcGU6cGFnZXNoYWRvdz0iMiIgaW5rc2NhcGU6d2luZG93LWhlaWdodD0iMTAxNyIgaW5rc2NhcGU6d2luZG93LW1heGltaXplZD0iMSIgaW5rc2NhcGU6d2luZG93LXdpZHRoPSIxOTIwIiBpbmtzY2FwZTp3aW5kb3cteD0iLTgiIGlua3NjYXBlOndpbmRvdy15PSItOCIgaW5rc2NhcGU6em9vbT0iMTkuODk0NjM2IiBvYmplY3R0b2xlcmFuY2U9IjEwIiBwYWdlY29sb3I9IiNmZmZmZmYiIHNob3dncmlkPSJmYWxzZSI+JiN4YTsJPC9zb2RpcG9kaTpuYW1lZHZpZXc+JiN4YTs8ZyBpZD0iZzQxMDEiIHRyYW5zZm9ybT0idHJhbnNsYXRlKDAsLTIuNDE4NjIyNWUtNSkiPiYjeGE7CTx0aXRsZSBpZD0idGl0bGU0MDgxIj5QYWdlLTE8L3RpdGxlPiYjeGE7CTxnIGlkPSJncm91cDQwMDYtMSI+JiN4YTsJCTx0aXRsZSBpZD0idGl0bGU0MDgzIj5EYXRhIFBpcGVsaW5lczwvdGl0bGU+JiN4YTsJCTxnIGlkPSJzaGFwZTQwMDctMiIgdHJhbnNmb3JtPSJ0cmFuc2xhdGUoMy43MjAzNSwtMS44NTUxNSkiPiYjeGE7CQkJPHRpdGxlIGlkPSJ0aXRsZTQwODUiPlNoZWV0LjQwMDc8L3RpdGxlPiYjeGE7CQkJPHBhdGggaWQ9InBhdGg0MDg3IiBpbmtzY2FwZTpjb25uZWN0b3ItY3VydmF0dXJlPSIwIiBzdHlsZT0iZmlsbDojM0Y1NzY1OyIgZD0iTTAsMy43MnYxMi42MmgxOS4yMlYzLjcySDB6Ii8+JiN4YTsJCTwvZz4mI3hhOwkJPGcgaWQ9InNoYXBlNDAwOC00Ij4mI3hhOwkJCTx0aXRsZSBpZD0idGl0bGU0MDkwIj5TaGVldC40MDA4PC90aXRsZT4mI3hhOwkJCTxwYXRoIGlkPSJwYXRoNDA5MiIgaW5rc2NhcGU6Y29ubmVjdG9yLWN1cnZhdHVyZT0iMCIgc3R5bGU9ImZpbGw6IzNGNTc2NTsiIGQ9Ik0wLDIuMzdjMCwxMS42MiwwLDExLjYyLDAsMTEuNjIgICAgIGMwLDEuNDIsMC45NiwyLjM1LDIuMzgsMi4zNWMxLjI4LDAsMi4zNy0wLjkzLDIuMzctMi4zNWMwLTExLjYyLDAtMTEuNjIsMC0xMS42MkM0Ljc1LDEuMTEsMy42NiwwLDIuMzgsMEMwLjk2LDAsMCwxLjExLDAsMi4zN3ogICAgICIvPiYjeGE7CQk8L2c+JiN4YTsJCTxnIGlkPSJzaGFwZTQwMDktNiIgdHJhbnNmb3JtPSJ0cmFuc2xhdGUoMjAuNjY4NikiPiYjeGE7CQkJPHRpdGxlIGlkPSJ0aXRsZTQwOTUiPlNoZWV0LjQwMDk8L3RpdGxlPiYjeGE7CQkJPHBhdGggaWQ9InBhdGg0MDk3IiBpbmtzY2FwZTpjb25uZWN0b3ItY3VydmF0dXJlPSIwIiBzdHlsZT0iZmlsbDojM0Y1NzY1OyIgZD0iTTAsMi4zN2MwLDExLjYyLDAsMTEuNjIsMCwxMS42MiAgICAgYzAsMS40MiwxLjA3LDIuMzUsMi4yNywyLjM1YzEuMjIsMCwyLjI4LTAuOTMsMi4yOC0yLjM1YzAtMTEuNjIsMC0xMS42MiwwLTExLjYyQzQuNTUsMS4xMSwzLjQ5LDAsMi4yNywwQzEuMDcsMCwwLDEuMTEsMCwyLjM3eiAgICAgIi8+JiN4YTsJCTwvZz4mI3hhOwk8L2c+JiN4YTs8L2c+JiN4YTs8L3N2Zz4=;" vertex="1" parent="RzjJ_zKFOmG12Z4Fz9ne-22">
          <mxGeometry x="272.5" y="17" width="25" height="16" as="geometry"/>
        </mxCell>
        <mxCell id="RzjJ_zKFOmG12Z4Fz9ne-18" value="" style="edgeStyle=orthogonalEdgeStyle;rounded=0;orthogonalLoop=1;jettySize=auto;html=1;" edge="1" parent="RzjJ_zKFOmG12Z4Fz9ne-22" source="RzjJ_zKFOmG12Z4Fz9ne-4" target="RzjJ_zKFOmG12Z4Fz9ne-8">
          <mxGeometry relative="1" as="geometry"/>
        </mxCell>
        <mxCell id="RzjJ_zKFOmG12Z4Fz9ne-23" value="积分链2" style="text;html=1;strokeColor=none;fillColor=none;align=center;verticalAlign=middle;whiteSpace=wrap;rounded=0;" vertex="1" parent="1">
          <mxGeometry x="94" y="331" width="50" height="20" as="geometry"/>
        </mxCell>
        <mxCell id="RzjJ_zKFOmG12Z4Fz9ne-24" value="" style="group" vertex="1" connectable="0" parent="1">
          <mxGeometry x="161.5" y="250" width="570" height="50" as="geometry"/>
        </mxCell>
        <mxCell id="RzjJ_zKFOmG12Z4Fz9ne-25" value="" style="rounded=1;whiteSpace=wrap;html=1;" vertex="1" parent="RzjJ_zKFOmG12Z4Fz9ne-24">
          <mxGeometry width="570" height="50" as="geometry"/>
        </mxCell>
        <mxCell id="RzjJ_zKFOmG12Z4Fz9ne-26" value="" style="shape=image;verticalLabelPosition=bottom;labelBackgroundColor=#ffffff;verticalAlign=top;aspect=fixed;imageAspect=0;image=data:image/svg+xml,PHN2ZyB4bWxuczpjYz0iaHR0cDovL2NyZWF0aXZlY29tbW9ucy5vcmcvbnMjIiB4bWxuczpkYz0iaHR0cDovL3B1cmwub3JnL2RjL2VsZW1lbnRzLzEuMS8iIHhtbG5zOmlua3NjYXBlPSJodHRwOi8vd3d3Lmlua3NjYXBlLm9yZy9uYW1lc3BhY2VzL2lua3NjYXBlIiB4bWxuczpyZGY9Imh0dHA6Ly93d3cudzMub3JnLzE5OTkvMDIvMjItcmRmLXN5bnRheC1ucyMiIHhtbG5zOnNvZGlwb2RpPSJodHRwOi8vc29kaXBvZGkuc291cmNlZm9yZ2UubmV0L0RURC9zb2RpcG9kaS0wLmR0ZCIgeG1sbnM6c3ZnPSJodHRwOi8vd3d3LnczLm9yZy8yMDAwL3N2ZyIgeG1sbnM9Imh0dHA6Ly93d3cudzMub3JnLzIwMDAvc3ZnIiB4bWxuczp4bGluaz0iaHR0cDovL3d3dy53My5vcmcvMTk5OS94bGluayIgdmVyc2lvbj0iMS4xIiBpZD0ic3ZnNDEwMyIgaW5rc2NhcGU6dmVyc2lvbj0iMC45Mi4zICgyNDA1NTQ2LCAyMDE4LTAzLTExKSIgc29kaXBvZGk6ZG9jbmFtZT0iZGF0YV9waXBlbGluZXMuc3ZnIiB4PSIwcHgiIHk9IjBweCIgdmlld0JveD0iMCAwIDI1LjIyIDE2LjM0IiBzdHlsZT0iZW5hYmxlLWJhY2tncm91bmQ6bmV3IDAgMCAyNS4yMiAxNi4zNDsiIHhtbDpzcGFjZT0icHJlc2VydmUiPiYjeGE7PHNvZGlwb2RpOm5hbWVkdmlldyBib3JkZXJjb2xvcj0iIzY2NjY2NiIgYm9yZGVyb3BhY2l0eT0iMSIgZml0LW1hcmdpbi1ib3R0b209IjAiIGZpdC1tYXJnaW4tbGVmdD0iMCIgZml0LW1hcmdpbi1yaWdodD0iMCIgZml0LW1hcmdpbi10b3A9IjAiIGdyaWR0b2xlcmFuY2U9IjEwIiBndWlkZXRvbGVyYW5jZT0iMTAiIGlkPSJuYW1lZHZpZXc0MTA1IiBpbmtzY2FwZTpjdXJyZW50LWxheWVyPSJzdmc0MTAzIiBpbmtzY2FwZTpjeD0iMjUuMTg1MDk2IiBpbmtzY2FwZTpjeT0iNS4yMjQxOTYzIiBpbmtzY2FwZTpwYWdlb3BhY2l0eT0iMCIgaW5rc2NhcGU6cGFnZXNoYWRvdz0iMiIgaW5rc2NhcGU6d2luZG93LWhlaWdodD0iMTAxNyIgaW5rc2NhcGU6d2luZG93LW1heGltaXplZD0iMSIgaW5rc2NhcGU6d2luZG93LXdpZHRoPSIxOTIwIiBpbmtzY2FwZTp3aW5kb3cteD0iLTgiIGlua3NjYXBlOndpbmRvdy15PSItOCIgaW5rc2NhcGU6em9vbT0iMTkuODk0NjM2IiBvYmplY3R0b2xlcmFuY2U9IjEwIiBwYWdlY29sb3I9IiNmZmZmZmYiIHNob3dncmlkPSJmYWxzZSI+JiN4YTsJPC9zb2RpcG9kaTpuYW1lZHZpZXc+JiN4YTs8ZyBpZD0iZzQxMDEiIHRyYW5zZm9ybT0idHJhbnNsYXRlKDAsLTIuNDE4NjIyNWUtNSkiPiYjeGE7CTx0aXRsZSBpZD0idGl0bGU0MDgxIj5QYWdlLTE8L3RpdGxlPiYjeGE7CTxnIGlkPSJncm91cDQwMDYtMSI+JiN4YTsJCTx0aXRsZSBpZD0idGl0bGU0MDgzIj5EYXRhIFBpcGVsaW5lczwvdGl0bGU+JiN4YTsJCTxnIGlkPSJzaGFwZTQwMDctMiIgdHJhbnNmb3JtPSJ0cmFuc2xhdGUoMy43MjAzNSwtMS44NTUxNSkiPiYjeGE7CQkJPHRpdGxlIGlkPSJ0aXRsZTQwODUiPlNoZWV0LjQwMDc8L3RpdGxlPiYjeGE7CQkJPHBhdGggaWQ9InBhdGg0MDg3IiBpbmtzY2FwZTpjb25uZWN0b3ItY3VydmF0dXJlPSIwIiBzdHlsZT0iZmlsbDojM0Y1NzY1OyIgZD0iTTAsMy43MnYxMi42MmgxOS4yMlYzLjcySDB6Ii8+JiN4YTsJCTwvZz4mI3hhOwkJPGcgaWQ9InNoYXBlNDAwOC00Ij4mI3hhOwkJCTx0aXRsZSBpZD0idGl0bGU0MDkwIj5TaGVldC40MDA4PC90aXRsZT4mI3hhOwkJCTxwYXRoIGlkPSJwYXRoNDA5MiIgaW5rc2NhcGU6Y29ubmVjdG9yLWN1cnZhdHVyZT0iMCIgc3R5bGU9ImZpbGw6IzNGNTc2NTsiIGQ9Ik0wLDIuMzdjMCwxMS42MiwwLDExLjYyLDAsMTEuNjIgICAgIGMwLDEuNDIsMC45NiwyLjM1LDIuMzgsMi4zNWMxLjI4LDAsMi4zNy0wLjkzLDIuMzctMi4zNWMwLTExLjYyLDAtMTEuNjIsMC0xMS42MkM0Ljc1LDEuMTEsMy42NiwwLDIuMzgsMEMwLjk2LDAsMCwxLjExLDAsMi4zN3ogICAgICIvPiYjeGE7CQk8L2c+JiN4YTsJCTxnIGlkPSJzaGFwZTQwMDktNiIgdHJhbnNmb3JtPSJ0cmFuc2xhdGUoMjAuNjY4NikiPiYjeGE7CQkJPHRpdGxlIGlkPSJ0aXRsZTQwOTUiPlNoZWV0LjQwMDk8L3RpdGxlPiYjeGE7CQkJPHBhdGggaWQ9InBhdGg0MDk3IiBpbmtzY2FwZTpjb25uZWN0b3ItY3VydmF0dXJlPSIwIiBzdHlsZT0iZmlsbDojM0Y1NzY1OyIgZD0iTTAsMi4zN2MwLDExLjYyLDAsMTEuNjIsMCwxMS42MiAgICAgYzAsMS40MiwxLjA3LDIuMzUsMi4yNywyLjM1YzEuMjIsMCwyLjI4LTAuOTMsMi4yOC0yLjM1YzAtMTEuNjIsMC0xMS42MiwwLTExLjYyQzQuNTUsMS4xMSwzLjQ5LDAsMi4yNywwQzEuMDcsMCwwLDEuMTEsMCwyLjM3eiAgICAgIi8+JiN4YTsJCTwvZz4mI3hhOwk8L2c+JiN4YTs8L2c+JiN4YTs8L3N2Zz4=;" vertex="1" parent="RzjJ_zKFOmG12Z4Fz9ne-24">
          <mxGeometry x="22.5" y="17" width="25" height="16" as="geometry"/>
        </mxCell>
        <mxCell id="RzjJ_zKFOmG12Z4Fz9ne-27" value="" style="shape=image;verticalLabelPosition=bottom;labelBackgroundColor=#ffffff;verticalAlign=top;aspect=fixed;imageAspect=0;image=data:image/svg+xml,PHN2ZyB4bWxuczpjYz0iaHR0cDovL2NyZWF0aXZlY29tbW9ucy5vcmcvbnMjIiB4bWxuczpkYz0iaHR0cDovL3B1cmwub3JnL2RjL2VsZW1lbnRzLzEuMS8iIHhtbG5zOmlua3NjYXBlPSJodHRwOi8vd3d3Lmlua3NjYXBlLm9yZy9uYW1lc3BhY2VzL2lua3NjYXBlIiB4bWxuczpyZGY9Imh0dHA6Ly93d3cudzMub3JnLzE5OTkvMDIvMjItcmRmLXN5bnRheC1ucyMiIHhtbG5zOnNvZGlwb2RpPSJodHRwOi8vc29kaXBvZGkuc291cmNlZm9yZ2UubmV0L0RURC9zb2RpcG9kaS0wLmR0ZCIgeG1sbnM6c3ZnPSJodHRwOi8vd3d3LnczLm9yZy8yMDAwL3N2ZyIgeG1sbnM9Imh0dHA6Ly93d3cudzMub3JnLzIwMDAvc3ZnIiB4bWxuczp4bGluaz0iaHR0cDovL3d3dy53My5vcmcvMTk5OS94bGluayIgdmVyc2lvbj0iMS4xIiBpZD0ic3ZnNDEwMyIgaW5rc2NhcGU6dmVyc2lvbj0iMC45Mi4zICgyNDA1NTQ2LCAyMDE4LTAzLTExKSIgc29kaXBvZGk6ZG9jbmFtZT0iZGF0YV9waXBlbGluZXMuc3ZnIiB4PSIwcHgiIHk9IjBweCIgdmlld0JveD0iMCAwIDI1LjIyIDE2LjM0IiBzdHlsZT0iZW5hYmxlLWJhY2tncm91bmQ6bmV3IDAgMCAyNS4yMiAxNi4zNDsiIHhtbDpzcGFjZT0icHJlc2VydmUiPiYjeGE7PHNvZGlwb2RpOm5hbWVkdmlldyBib3JkZXJjb2xvcj0iIzY2NjY2NiIgYm9yZGVyb3BhY2l0eT0iMSIgZml0LW1hcmdpbi1ib3R0b209IjAiIGZpdC1tYXJnaW4tbGVmdD0iMCIgZml0LW1hcmdpbi1yaWdodD0iMCIgZml0LW1hcmdpbi10b3A9IjAiIGdyaWR0b2xlcmFuY2U9IjEwIiBndWlkZXRvbGVyYW5jZT0iMTAiIGlkPSJuYW1lZHZpZXc0MTA1IiBpbmtzY2FwZTpjdXJyZW50LWxheWVyPSJzdmc0MTAzIiBpbmtzY2FwZTpjeD0iMjUuMTg1MDk2IiBpbmtzY2FwZTpjeT0iNS4yMjQxOTYzIiBpbmtzY2FwZTpwYWdlb3BhY2l0eT0iMCIgaW5rc2NhcGU6cGFnZXNoYWRvdz0iMiIgaW5rc2NhcGU6d2luZG93LWhlaWdodD0iMTAxNyIgaW5rc2NhcGU6d2luZG93LW1heGltaXplZD0iMSIgaW5rc2NhcGU6d2luZG93LXdpZHRoPSIxOTIwIiBpbmtzY2FwZTp3aW5kb3cteD0iLTgiIGlua3NjYXBlOndpbmRvdy15PSItOCIgaW5rc2NhcGU6em9vbT0iMTkuODk0NjM2IiBvYmplY3R0b2xlcmFuY2U9IjEwIiBwYWdlY29sb3I9IiNmZmZmZmYiIHNob3dncmlkPSJmYWxzZSI+JiN4YTsJPC9zb2RpcG9kaTpuYW1lZHZpZXc+JiN4YTs8ZyBpZD0iZzQxMDEiIHRyYW5zZm9ybT0idHJhbnNsYXRlKDAsLTIuNDE4NjIyNWUtNSkiPiYjeGE7CTx0aXRsZSBpZD0idGl0bGU0MDgxIj5QYWdlLTE8L3RpdGxlPiYjeGE7CTxnIGlkPSJncm91cDQwMDYtMSI+JiN4YTsJCTx0aXRsZSBpZD0idGl0bGU0MDgzIj5EYXRhIFBpcGVsaW5lczwvdGl0bGU+JiN4YTsJCTxnIGlkPSJzaGFwZTQwMDctMiIgdHJhbnNmb3JtPSJ0cmFuc2xhdGUoMy43MjAzNSwtMS44NTUxNSkiPiYjeGE7CQkJPHRpdGxlIGlkPSJ0aXRsZTQwODUiPlNoZWV0LjQwMDc8L3RpdGxlPiYjeGE7CQkJPHBhdGggaWQ9InBhdGg0MDg3IiBpbmtzY2FwZTpjb25uZWN0b3ItY3VydmF0dXJlPSIwIiBzdHlsZT0iZmlsbDojM0Y1NzY1OyIgZD0iTTAsMy43MnYxMi42MmgxOS4yMlYzLjcySDB6Ii8+JiN4YTsJCTwvZz4mI3hhOwkJPGcgaWQ9InNoYXBlNDAwOC00Ij4mI3hhOwkJCTx0aXRsZSBpZD0idGl0bGU0MDkwIj5TaGVldC40MDA4PC90aXRsZT4mI3hhOwkJCTxwYXRoIGlkPSJwYXRoNDA5MiIgaW5rc2NhcGU6Y29ubmVjdG9yLWN1cnZhdHVyZT0iMCIgc3R5bGU9ImZpbGw6IzNGNTc2NTsiIGQ9Ik0wLDIuMzdjMCwxMS42MiwwLDExLjYyLDAsMTEuNjIgICAgIGMwLDEuNDIsMC45NiwyLjM1LDIuMzgsMi4zNWMxLjI4LDAsMi4zNy0wLjkzLDIuMzctMi4zNWMwLTExLjYyLDAtMTEuNjIsMC0xMS42MkM0Ljc1LDEuMTEsMy42NiwwLDIuMzgsMEMwLjk2LDAsMCwxLjExLDAsMi4zN3ogICAgICIvPiYjeGE7CQk8L2c+JiN4YTsJCTxnIGlkPSJzaGFwZTQwMDktNiIgdHJhbnNmb3JtPSJ0cmFuc2xhdGUoMjAuNjY4NikiPiYjeGE7CQkJPHRpdGxlIGlkPSJ0aXRsZTQwOTUiPlNoZWV0LjQwMDk8L3RpdGxlPiYjeGE7CQkJPHBhdGggaWQ9InBhdGg0MDk3IiBpbmtzY2FwZTpjb25uZWN0b3ItY3VydmF0dXJlPSIwIiBzdHlsZT0iZmlsbDojM0Y1NzY1OyIgZD0iTTAsMi4zN2MwLDExLjYyLDAsMTEuNjIsMCwxMS42MiAgICAgYzAsMS40MiwxLjA3LDIuMzUsMi4yNywyLjM1YzEuMjIsMCwyLjI4LTAuOTMsMi4yOC0yLjM1YzAtMTEuNjIsMC0xMS42MiwwLTExLjYyQzQuNTUsMS4xMSwzLjQ5LDAsMi4yNywwQzEuMDcsMCwwLDEuMTEsMCwyLjM3eiAgICAgIi8+JiN4YTsJCTwvZz4mI3hhOwk8L2c+JiN4YTs8L2c+JiN4YTs8L3N2Zz4=;" vertex="1" parent="RzjJ_zKFOmG12Z4Fz9ne-24">
          <mxGeometry x="105.5" y="17" width="25" height="16" as="geometry"/>
        </mxCell>
        <mxCell id="RzjJ_zKFOmG12Z4Fz9ne-28" value="" style="edgeStyle=orthogonalEdgeStyle;rounded=0;orthogonalLoop=1;jettySize=auto;html=1;" edge="1" parent="RzjJ_zKFOmG12Z4Fz9ne-24" source="RzjJ_zKFOmG12Z4Fz9ne-26" target="RzjJ_zKFOmG12Z4Fz9ne-27">
          <mxGeometry relative="1" as="geometry"/>
        </mxCell>
        <mxCell id="RzjJ_zKFOmG12Z4Fz9ne-29" value="" style="shape=image;verticalLabelPosition=bottom;labelBackgroundColor=#ffffff;verticalAlign=top;aspect=fixed;imageAspect=0;image=data:image/svg+xml,PHN2ZyB4bWxuczpjYz0iaHR0cDovL2NyZWF0aXZlY29tbW9ucy5vcmcvbnMjIiB4bWxuczpkYz0iaHR0cDovL3B1cmwub3JnL2RjL2VsZW1lbnRzLzEuMS8iIHhtbG5zOmlua3NjYXBlPSJodHRwOi8vd3d3Lmlua3NjYXBlLm9yZy9uYW1lc3BhY2VzL2lua3NjYXBlIiB4bWxuczpyZGY9Imh0dHA6Ly93d3cudzMub3JnLzE5OTkvMDIvMjItcmRmLXN5bnRheC1ucyMiIHhtbG5zOnNvZGlwb2RpPSJodHRwOi8vc29kaXBvZGkuc291cmNlZm9yZ2UubmV0L0RURC9zb2RpcG9kaS0wLmR0ZCIgeG1sbnM6c3ZnPSJodHRwOi8vd3d3LnczLm9yZy8yMDAwL3N2ZyIgeG1sbnM9Imh0dHA6Ly93d3cudzMub3JnLzIwMDAvc3ZnIiB4bWxuczp4bGluaz0iaHR0cDovL3d3dy53My5vcmcvMTk5OS94bGluayIgdmVyc2lvbj0iMS4xIiBpZD0ic3ZnNDEwMyIgaW5rc2NhcGU6dmVyc2lvbj0iMC45Mi4zICgyNDA1NTQ2LCAyMDE4LTAzLTExKSIgc29kaXBvZGk6ZG9jbmFtZT0iZGF0YV9waXBlbGluZXMuc3ZnIiB4PSIwcHgiIHk9IjBweCIgdmlld0JveD0iMCAwIDI1LjIyIDE2LjM0IiBzdHlsZT0iZW5hYmxlLWJhY2tncm91bmQ6bmV3IDAgMCAyNS4yMiAxNi4zNDsiIHhtbDpzcGFjZT0icHJlc2VydmUiPiYjeGE7PHNvZGlwb2RpOm5hbWVkdmlldyBib3JkZXJjb2xvcj0iIzY2NjY2NiIgYm9yZGVyb3BhY2l0eT0iMSIgZml0LW1hcmdpbi1ib3R0b209IjAiIGZpdC1tYXJnaW4tbGVmdD0iMCIgZml0LW1hcmdpbi1yaWdodD0iMCIgZml0LW1hcmdpbi10b3A9IjAiIGdyaWR0b2xlcmFuY2U9IjEwIiBndWlkZXRvbGVyYW5jZT0iMTAiIGlkPSJuYW1lZHZpZXc0MTA1IiBpbmtzY2FwZTpjdXJyZW50LWxheWVyPSJzdmc0MTAzIiBpbmtzY2FwZTpjeD0iMjUuMTg1MDk2IiBpbmtzY2FwZTpjeT0iNS4yMjQxOTYzIiBpbmtzY2FwZTpwYWdlb3BhY2l0eT0iMCIgaW5rc2NhcGU6cGFnZXNoYWRvdz0iMiIgaW5rc2NhcGU6d2luZG93LWhlaWdodD0iMTAxNyIgaW5rc2NhcGU6d2luZG93LW1heGltaXplZD0iMSIgaW5rc2NhcGU6d2luZG93LXdpZHRoPSIxOTIwIiBpbmtzY2FwZTp3aW5kb3cteD0iLTgiIGlua3NjYXBlOndpbmRvdy15PSItOCIgaW5rc2NhcGU6em9vbT0iMTkuODk0NjM2IiBvYmplY3R0b2xlcmFuY2U9IjEwIiBwYWdlY29sb3I9IiNmZmZmZmYiIHNob3dncmlkPSJmYWxzZSI+JiN4YTsJPC9zb2RpcG9kaTpuYW1lZHZpZXc+JiN4YTs8ZyBpZD0iZzQxMDEiIHRyYW5zZm9ybT0idHJhbnNsYXRlKDAsLTIuNDE4NjIyNWUtNSkiPiYjeGE7CTx0aXRsZSBpZD0idGl0bGU0MDgxIj5QYWdlLTE8L3RpdGxlPiYjeGE7CTxnIGlkPSJncm91cDQwMDYtMSI+JiN4YTsJCTx0aXRsZSBpZD0idGl0bGU0MDgzIj5EYXRhIFBpcGVsaW5lczwvdGl0bGU+JiN4YTsJCTxnIGlkPSJzaGFwZTQwMDctMiIgdHJhbnNmb3JtPSJ0cmFuc2xhdGUoMy43MjAzNSwtMS44NTUxNSkiPiYjeGE7CQkJPHRpdGxlIGlkPSJ0aXRsZTQwODUiPlNoZWV0LjQwMDc8L3RpdGxlPiYjeGE7CQkJPHBhdGggaWQ9InBhdGg0MDg3IiBpbmtzY2FwZTpjb25uZWN0b3ItY3VydmF0dXJlPSIwIiBzdHlsZT0iZmlsbDojM0Y1NzY1OyIgZD0iTTAsMy43MnYxMi42MmgxOS4yMlYzLjcySDB6Ii8+JiN4YTsJCTwvZz4mI3hhOwkJPGcgaWQ9InNoYXBlNDAwOC00Ij4mI3hhOwkJCTx0aXRsZSBpZD0idGl0bGU0MDkwIj5TaGVldC40MDA4PC90aXRsZT4mI3hhOwkJCTxwYXRoIGlkPSJwYXRoNDA5MiIgaW5rc2NhcGU6Y29ubmVjdG9yLWN1cnZhdHVyZT0iMCIgc3R5bGU9ImZpbGw6IzNGNTc2NTsiIGQ9Ik0wLDIuMzdjMCwxMS42MiwwLDExLjYyLDAsMTEuNjIgICAgIGMwLDEuNDIsMC45NiwyLjM1LDIuMzgsMi4zNWMxLjI4LDAsMi4zNy0wLjkzLDIuMzctMi4zNWMwLTExLjYyLDAtMTEuNjIsMC0xMS42MkM0Ljc1LDEuMTEsMy42NiwwLDIuMzgsMEMwLjk2LDAsMCwxLjExLDAsMi4zN3ogICAgICIvPiYjeGE7CQk8L2c+JiN4YTsJCTxnIGlkPSJzaGFwZTQwMDktNiIgdHJhbnNmb3JtPSJ0cmFuc2xhdGUoMjAuNjY4NikiPiYjeGE7CQkJPHRpdGxlIGlkPSJ0aXRsZTQwOTUiPlNoZWV0LjQwMDk8L3RpdGxlPiYjeGE7CQkJPHBhdGggaWQ9InBhdGg0MDk3IiBpbmtzY2FwZTpjb25uZWN0b3ItY3VydmF0dXJlPSIwIiBzdHlsZT0iZmlsbDojM0Y1NzY1OyIgZD0iTTAsMi4zN2MwLDExLjYyLDAsMTEuNjIsMCwxMS42MiAgICAgYzAsMS40MiwxLjA3LDIuMzUsMi4yNywyLjM1YzEuMjIsMCwyLjI4LTAuOTMsMi4yOC0yLjM1YzAtMTEuNjIsMC0xMS42MiwwLTExLjYyQzQuNTUsMS4xMSwzLjQ5LDAsMi4yNywwQzEuMDcsMCwwLDEuMTEsMCwyLjM3eiAgICAgIi8+JiN4YTsJCTwvZz4mI3hhOwk8L2c+JiN4YTs8L2c+JiN4YTs8L3N2Zz4=;" vertex="1" parent="RzjJ_zKFOmG12Z4Fz9ne-24">
          <mxGeometry x="189.5" y="17" width="25" height="16" as="geometry"/>
        </mxCell>
        <mxCell id="RzjJ_zKFOmG12Z4Fz9ne-30" value="" style="edgeStyle=orthogonalEdgeStyle;rounded=0;orthogonalLoop=1;jettySize=auto;html=1;" edge="1" parent="RzjJ_zKFOmG12Z4Fz9ne-24" source="RzjJ_zKFOmG12Z4Fz9ne-27" target="RzjJ_zKFOmG12Z4Fz9ne-29">
          <mxGeometry relative="1" as="geometry"/>
        </mxCell>
        <mxCell id="RzjJ_zKFOmG12Z4Fz9ne-31" value="" style="shape=image;verticalLabelPosition=bottom;labelBackgroundColor=#ffffff;verticalAlign=top;aspect=fixed;imageAspect=0;image=data:image/svg+xml,PHN2ZyB4bWxuczpjYz0iaHR0cDovL2NyZWF0aXZlY29tbW9ucy5vcmcvbnMjIiB4bWxuczpkYz0iaHR0cDovL3B1cmwub3JnL2RjL2VsZW1lbnRzLzEuMS8iIHhtbG5zOmlua3NjYXBlPSJodHRwOi8vd3d3Lmlua3NjYXBlLm9yZy9uYW1lc3BhY2VzL2lua3NjYXBlIiB4bWxuczpyZGY9Imh0dHA6Ly93d3cudzMub3JnLzE5OTkvMDIvMjItcmRmLXN5bnRheC1ucyMiIHhtbG5zOnNvZGlwb2RpPSJodHRwOi8vc29kaXBvZGkuc291cmNlZm9yZ2UubmV0L0RURC9zb2RpcG9kaS0wLmR0ZCIgeG1sbnM6c3ZnPSJodHRwOi8vd3d3LnczLm9yZy8yMDAwL3N2ZyIgeG1sbnM9Imh0dHA6Ly93d3cudzMub3JnLzIwMDAvc3ZnIiB4bWxuczp4bGluaz0iaHR0cDovL3d3dy53My5vcmcvMTk5OS94bGluayIgdmVyc2lvbj0iMS4xIiBpZD0ic3ZnNDEwMyIgaW5rc2NhcGU6dmVyc2lvbj0iMC45Mi4zICgyNDA1NTQ2LCAyMDE4LTAzLTExKSIgc29kaXBvZGk6ZG9jbmFtZT0iZGF0YV9waXBlbGluZXMuc3ZnIiB4PSIwcHgiIHk9IjBweCIgdmlld0JveD0iMCAwIDI1LjIyIDE2LjM0IiBzdHlsZT0iZW5hYmxlLWJhY2tncm91bmQ6bmV3IDAgMCAyNS4yMiAxNi4zNDsiIHhtbDpzcGFjZT0icHJlc2VydmUiPiYjeGE7PHNvZGlwb2RpOm5hbWVkdmlldyBib3JkZXJjb2xvcj0iIzY2NjY2NiIgYm9yZGVyb3BhY2l0eT0iMSIgZml0LW1hcmdpbi1ib3R0b209IjAiIGZpdC1tYXJnaW4tbGVmdD0iMCIgZml0LW1hcmdpbi1yaWdodD0iMCIgZml0LW1hcmdpbi10b3A9IjAiIGdyaWR0b2xlcmFuY2U9IjEwIiBndWlkZXRvbGVyYW5jZT0iMTAiIGlkPSJuYW1lZHZpZXc0MTA1IiBpbmtzY2FwZTpjdXJyZW50LWxheWVyPSJzdmc0MTAzIiBpbmtzY2FwZTpjeD0iMjUuMTg1MDk2IiBpbmtzY2FwZTpjeT0iNS4yMjQxOTYzIiBpbmtzY2FwZTpwYWdlb3BhY2l0eT0iMCIgaW5rc2NhcGU6cGFnZXNoYWRvdz0iMiIgaW5rc2NhcGU6d2luZG93LWhlaWdodD0iMTAxNyIgaW5rc2NhcGU6d2luZG93LW1heGltaXplZD0iMSIgaW5rc2NhcGU6d2luZG93LXdpZHRoPSIxOTIwIiBpbmtzY2FwZTp3aW5kb3cteD0iLTgiIGlua3NjYXBlOndpbmRvdy15PSItOCIgaW5rc2NhcGU6em9vbT0iMTkuODk0NjM2IiBvYmplY3R0b2xlcmFuY2U9IjEwIiBwYWdlY29sb3I9IiNmZmZmZmYiIHNob3dncmlkPSJmYWxzZSI+JiN4YTsJPC9zb2RpcG9kaTpuYW1lZHZpZXc+JiN4YTs8ZyBpZD0iZzQxMDEiIHRyYW5zZm9ybT0idHJhbnNsYXRlKDAsLTIuNDE4NjIyNWUtNSkiPiYjeGE7CTx0aXRsZSBpZD0idGl0bGU0MDgxIj5QYWdlLTE8L3RpdGxlPiYjeGE7CTxnIGlkPSJncm91cDQwMDYtMSI+JiN4YTsJCTx0aXRsZSBpZD0idGl0bGU0MDgzIj5EYXRhIFBpcGVsaW5lczwvdGl0bGU+JiN4YTsJCTxnIGlkPSJzaGFwZTQwMDctMiIgdHJhbnNmb3JtPSJ0cmFuc2xhdGUoMy43MjAzNSwtMS44NTUxNSkiPiYjeGE7CQkJPHRpdGxlIGlkPSJ0aXRsZTQwODUiPlNoZWV0LjQwMDc8L3RpdGxlPiYjeGE7CQkJPHBhdGggaWQ9InBhdGg0MDg3IiBpbmtzY2FwZTpjb25uZWN0b3ItY3VydmF0dXJlPSIwIiBzdHlsZT0iZmlsbDojM0Y1NzY1OyIgZD0iTTAsMy43MnYxMi42MmgxOS4yMlYzLjcySDB6Ii8+JiN4YTsJCTwvZz4mI3hhOwkJPGcgaWQ9InNoYXBlNDAwOC00Ij4mI3hhOwkJCTx0aXRsZSBpZD0idGl0bGU0MDkwIj5TaGVldC40MDA4PC90aXRsZT4mI3hhOwkJCTxwYXRoIGlkPSJwYXRoNDA5MiIgaW5rc2NhcGU6Y29ubmVjdG9yLWN1cnZhdHVyZT0iMCIgc3R5bGU9ImZpbGw6IzNGNTc2NTsiIGQ9Ik0wLDIuMzdjMCwxMS42MiwwLDExLjYyLDAsMTEuNjIgICAgIGMwLDEuNDIsMC45NiwyLjM1LDIuMzgsMi4zNWMxLjI4LDAsMi4zNy0wLjkzLDIuMzctMi4zNWMwLTExLjYyLDAtMTEuNjIsMC0xMS42MkM0Ljc1LDEuMTEsMy42NiwwLDIuMzgsMEMwLjk2LDAsMCwxLjExLDAsMi4zN3ogICAgICIvPiYjeGE7CQk8L2c+JiN4YTsJCTxnIGlkPSJzaGFwZTQwMDktNiIgdHJhbnNmb3JtPSJ0cmFuc2xhdGUoMjAuNjY4NikiPiYjeGE7CQkJPHRpdGxlIGlkPSJ0aXRsZTQwOTUiPlNoZWV0LjQwMDk8L3RpdGxlPiYjeGE7CQkJPHBhdGggaWQ9InBhdGg0MDk3IiBpbmtzY2FwZTpjb25uZWN0b3ItY3VydmF0dXJlPSIwIiBzdHlsZT0iZmlsbDojM0Y1NzY1OyIgZD0iTTAsMi4zN2MwLDExLjYyLDAsMTEuNjIsMCwxMS42MiAgICAgYzAsMS40MiwxLjA3LDIuMzUsMi4yNywyLjM1YzEuMjIsMCwyLjI4LTAuOTMsMi4yOC0yLjM1YzAtMTEuNjIsMC0xMS42MiwwLTExLjYyQzQuNTUsMS4xMSwzLjQ5LDAsMi4yNywwQzEuMDcsMCwwLDEuMTEsMCwyLjM3eiAgICAgIi8+JiN4YTsJCTwvZz4mI3hhOwk8L2c+JiN4YTs8L2c+JiN4YTs8L3N2Zz4=;" vertex="1" parent="RzjJ_zKFOmG12Z4Fz9ne-24">
          <mxGeometry x="522.5" y="17" width="25" height="16" as="geometry"/>
        </mxCell>
        <mxCell id="RzjJ_zKFOmG12Z4Fz9ne-32" value="" style="edgeStyle=orthogonalEdgeStyle;rounded=0;orthogonalLoop=1;jettySize=auto;html=1;" edge="1" parent="RzjJ_zKFOmG12Z4Fz9ne-24" source="RzjJ_zKFOmG12Z4Fz9ne-33" target="RzjJ_zKFOmG12Z4Fz9ne-31">
          <mxGeometry relative="1" as="geometry"/>
        </mxCell>
        <mxCell id="RzjJ_zKFOmG12Z4Fz9ne-33" value="" style="shape=image;verticalLabelPosition=bottom;labelBackgroundColor=#ffffff;verticalAlign=top;aspect=fixed;imageAspect=0;image=data:image/svg+xml,PHN2ZyB4bWxuczpjYz0iaHR0cDovL2NyZWF0aXZlY29tbW9ucy5vcmcvbnMjIiB4bWxuczpkYz0iaHR0cDovL3B1cmwub3JnL2RjL2VsZW1lbnRzLzEuMS8iIHhtbG5zOmlua3NjYXBlPSJodHRwOi8vd3d3Lmlua3NjYXBlLm9yZy9uYW1lc3BhY2VzL2lua3NjYXBlIiB4bWxuczpyZGY9Imh0dHA6Ly93d3cudzMub3JnLzE5OTkvMDIvMjItcmRmLXN5bnRheC1ucyMiIHhtbG5zOnNvZGlwb2RpPSJodHRwOi8vc29kaXBvZGkuc291cmNlZm9yZ2UubmV0L0RURC9zb2RpcG9kaS0wLmR0ZCIgeG1sbnM6c3ZnPSJodHRwOi8vd3d3LnczLm9yZy8yMDAwL3N2ZyIgeG1sbnM9Imh0dHA6Ly93d3cudzMub3JnLzIwMDAvc3ZnIiB4bWxuczp4bGluaz0iaHR0cDovL3d3dy53My5vcmcvMTk5OS94bGluayIgdmVyc2lvbj0iMS4xIiBpZD0ic3ZnNDEwMyIgaW5rc2NhcGU6dmVyc2lvbj0iMC45Mi4zICgyNDA1NTQ2LCAyMDE4LTAzLTExKSIgc29kaXBvZGk6ZG9jbmFtZT0iZGF0YV9waXBlbGluZXMuc3ZnIiB4PSIwcHgiIHk9IjBweCIgdmlld0JveD0iMCAwIDI1LjIyIDE2LjM0IiBzdHlsZT0iZW5hYmxlLWJhY2tncm91bmQ6bmV3IDAgMCAyNS4yMiAxNi4zNDsiIHhtbDpzcGFjZT0icHJlc2VydmUiPiYjeGE7PHNvZGlwb2RpOm5hbWVkdmlldyBib3JkZXJjb2xvcj0iIzY2NjY2NiIgYm9yZGVyb3BhY2l0eT0iMSIgZml0LW1hcmdpbi1ib3R0b209IjAiIGZpdC1tYXJnaW4tbGVmdD0iMCIgZml0LW1hcmdpbi1yaWdodD0iMCIgZml0LW1hcmdpbi10b3A9IjAiIGdyaWR0b2xlcmFuY2U9IjEwIiBndWlkZXRvbGVyYW5jZT0iMTAiIGlkPSJuYW1lZHZpZXc0MTA1IiBpbmtzY2FwZTpjdXJyZW50LWxheWVyPSJzdmc0MTAzIiBpbmtzY2FwZTpjeD0iMjUuMTg1MDk2IiBpbmtzY2FwZTpjeT0iNS4yMjQxOTYzIiBpbmtzY2FwZTpwYWdlb3BhY2l0eT0iMCIgaW5rc2NhcGU6cGFnZXNoYWRvdz0iMiIgaW5rc2NhcGU6d2luZG93LWhlaWdodD0iMTAxNyIgaW5rc2NhcGU6d2luZG93LW1heGltaXplZD0iMSIgaW5rc2NhcGU6d2luZG93LXdpZHRoPSIxOTIwIiBpbmtzY2FwZTp3aW5kb3cteD0iLTgiIGlua3NjYXBlOndpbmRvdy15PSItOCIgaW5rc2NhcGU6em9vbT0iMTkuODk0NjM2IiBvYmplY3R0b2xlcmFuY2U9IjEwIiBwYWdlY29sb3I9IiNmZmZmZmYiIHNob3dncmlkPSJmYWxzZSI+JiN4YTsJPC9zb2RpcG9kaTpuYW1lZHZpZXc+JiN4YTs8ZyBpZD0iZzQxMDEiIHRyYW5zZm9ybT0idHJhbnNsYXRlKDAsLTIuNDE4NjIyNWUtNSkiPiYjeGE7CTx0aXRsZSBpZD0idGl0bGU0MDgxIj5QYWdlLTE8L3RpdGxlPiYjeGE7CTxnIGlkPSJncm91cDQwMDYtMSI+JiN4YTsJCTx0aXRsZSBpZD0idGl0bGU0MDgzIj5EYXRhIFBpcGVsaW5lczwvdGl0bGU+JiN4YTsJCTxnIGlkPSJzaGFwZTQwMDctMiIgdHJhbnNmb3JtPSJ0cmFuc2xhdGUoMy43MjAzNSwtMS44NTUxNSkiPiYjeGE7CQkJPHRpdGxlIGlkPSJ0aXRsZTQwODUiPlNoZWV0LjQwMDc8L3RpdGxlPiYjeGE7CQkJPHBhdGggaWQ9InBhdGg0MDg3IiBpbmtzY2FwZTpjb25uZWN0b3ItY3VydmF0dXJlPSIwIiBzdHlsZT0iZmlsbDojM0Y1NzY1OyIgZD0iTTAsMy43MnYxMi42MmgxOS4yMlYzLjcySDB6Ii8+JiN4YTsJCTwvZz4mI3hhOwkJPGcgaWQ9InNoYXBlNDAwOC00Ij4mI3hhOwkJCTx0aXRsZSBpZD0idGl0bGU0MDkwIj5TaGVldC40MDA4PC90aXRsZT4mI3hhOwkJCTxwYXRoIGlkPSJwYXRoNDA5MiIgaW5rc2NhcGU6Y29ubmVjdG9yLWN1cnZhdHVyZT0iMCIgc3R5bGU9ImZpbGw6IzNGNTc2NTsiIGQ9Ik0wLDIuMzdjMCwxMS42MiwwLDExLjYyLDAsMTEuNjIgICAgIGMwLDEuNDIsMC45NiwyLjM1LDIuMzgsMi4zNWMxLjI4LDAsMi4zNy0wLjkzLDIuMzctMi4zNWMwLTExLjYyLDAtMTEuNjIsMC0xMS42MkM0Ljc1LDEuMTEsMy42NiwwLDIuMzgsMEMwLjk2LDAsMCwxLjExLDAsMi4zN3ogICAgICIvPiYjeGE7CQk8L2c+JiN4YTsJCTxnIGlkPSJzaGFwZTQwMDktNiIgdHJhbnNmb3JtPSJ0cmFuc2xhdGUoMjAuNjY4NikiPiYjeGE7CQkJPHRpdGxlIGlkPSJ0aXRsZTQwOTUiPlNoZWV0LjQwMDk8L3RpdGxlPiYjeGE7CQkJPHBhdGggaWQ9InBhdGg0MDk3IiBpbmtzY2FwZTpjb25uZWN0b3ItY3VydmF0dXJlPSIwIiBzdHlsZT0iZmlsbDojM0Y1NzY1OyIgZD0iTTAsMi4zN2MwLDExLjYyLDAsMTEuNjIsMCwxMS42MiAgICAgYzAsMS40MiwxLjA3LDIuMzUsMi4yNywyLjM1YzEuMjIsMCwyLjI4LTAuOTMsMi4yOC0yLjM1YzAtMTEuNjIsMC0xMS42MiwwLTExLjYyQzQuNTUsMS4xMSwzLjQ5LDAsMi4yNywwQzEuMDcsMCwwLDEuMTEsMCwyLjM3eiAgICAgIi8+JiN4YTsJCTwvZz4mI3hhOwk8L2c+JiN4YTs8L2c+JiN4YTs8L3N2Zz4=;" vertex="1" parent="RzjJ_zKFOmG12Z4Fz9ne-24">
          <mxGeometry x="439.5" y="17" width="25" height="16" as="geometry"/>
        </mxCell>
        <mxCell id="RzjJ_zKFOmG12Z4Fz9ne-34" value="" style="edgeStyle=orthogonalEdgeStyle;rounded=0;orthogonalLoop=1;jettySize=auto;html=1;" edge="1" parent="RzjJ_zKFOmG12Z4Fz9ne-24" source="RzjJ_zKFOmG12Z4Fz9ne-35" target="RzjJ_zKFOmG12Z4Fz9ne-33">
          <mxGeometry relative="1" as="geometry"/>
        </mxCell>
        <mxCell id="RzjJ_zKFOmG12Z4Fz9ne-35" value="" style="shape=image;verticalLabelPosition=bottom;labelBackgroundColor=#ffffff;verticalAlign=top;aspect=fixed;imageAspect=0;image=data:image/svg+xml,PHN2ZyB4bWxuczpjYz0iaHR0cDovL2NyZWF0aXZlY29tbW9ucy5vcmcvbnMjIiB4bWxuczpkYz0iaHR0cDovL3B1cmwub3JnL2RjL2VsZW1lbnRzLzEuMS8iIHhtbG5zOmlua3NjYXBlPSJodHRwOi8vd3d3Lmlua3NjYXBlLm9yZy9uYW1lc3BhY2VzL2lua3NjYXBlIiB4bWxuczpyZGY9Imh0dHA6Ly93d3cudzMub3JnLzE5OTkvMDIvMjItcmRmLXN5bnRheC1ucyMiIHhtbG5zOnNvZGlwb2RpPSJodHRwOi8vc29kaXBvZGkuc291cmNlZm9yZ2UubmV0L0RURC9zb2RpcG9kaS0wLmR0ZCIgeG1sbnM6c3ZnPSJodHRwOi8vd3d3LnczLm9yZy8yMDAwL3N2ZyIgeG1sbnM9Imh0dHA6Ly93d3cudzMub3JnLzIwMDAvc3ZnIiB4bWxuczp4bGluaz0iaHR0cDovL3d3dy53My5vcmcvMTk5OS94bGluayIgdmVyc2lvbj0iMS4xIiBpZD0ic3ZnNDEwMyIgaW5rc2NhcGU6dmVyc2lvbj0iMC45Mi4zICgyNDA1NTQ2LCAyMDE4LTAzLTExKSIgc29kaXBvZGk6ZG9jbmFtZT0iZGF0YV9waXBlbGluZXMuc3ZnIiB4PSIwcHgiIHk9IjBweCIgdmlld0JveD0iMCAwIDI1LjIyIDE2LjM0IiBzdHlsZT0iZW5hYmxlLWJhY2tncm91bmQ6bmV3IDAgMCAyNS4yMiAxNi4zNDsiIHhtbDpzcGFjZT0icHJlc2VydmUiPiYjeGE7PHNvZGlwb2RpOm5hbWVkdmlldyBib3JkZXJjb2xvcj0iIzY2NjY2NiIgYm9yZGVyb3BhY2l0eT0iMSIgZml0LW1hcmdpbi1ib3R0b209IjAiIGZpdC1tYXJnaW4tbGVmdD0iMCIgZml0LW1hcmdpbi1yaWdodD0iMCIgZml0LW1hcmdpbi10b3A9IjAiIGdyaWR0b2xlcmFuY2U9IjEwIiBndWlkZXRvbGVyYW5jZT0iMTAiIGlkPSJuYW1lZHZpZXc0MTA1IiBpbmtzY2FwZTpjdXJyZW50LWxheWVyPSJzdmc0MTAzIiBpbmtzY2FwZTpjeD0iMjUuMTg1MDk2IiBpbmtzY2FwZTpjeT0iNS4yMjQxOTYzIiBpbmtzY2FwZTpwYWdlb3BhY2l0eT0iMCIgaW5rc2NhcGU6cGFnZXNoYWRvdz0iMiIgaW5rc2NhcGU6d2luZG93LWhlaWdodD0iMTAxNyIgaW5rc2NhcGU6d2luZG93LW1heGltaXplZD0iMSIgaW5rc2NhcGU6d2luZG93LXdpZHRoPSIxOTIwIiBpbmtzY2FwZTp3aW5kb3cteD0iLTgiIGlua3NjYXBlOndpbmRvdy15PSItOCIgaW5rc2NhcGU6em9vbT0iMTkuODk0NjM2IiBvYmplY3R0b2xlcmFuY2U9IjEwIiBwYWdlY29sb3I9IiNmZmZmZmYiIHNob3dncmlkPSJmYWxzZSI+JiN4YTsJPC9zb2RpcG9kaTpuYW1lZHZpZXc+JiN4YTs8ZyBpZD0iZzQxMDEiIHRyYW5zZm9ybT0idHJhbnNsYXRlKDAsLTIuNDE4NjIyNWUtNSkiPiYjeGE7CTx0aXRsZSBpZD0idGl0bGU0MDgxIj5QYWdlLTE8L3RpdGxlPiYjeGE7CTxnIGlkPSJncm91cDQwMDYtMSI+JiN4YTsJCTx0aXRsZSBpZD0idGl0bGU0MDgzIj5EYXRhIFBpcGVsaW5lczwvdGl0bGU+JiN4YTsJCTxnIGlkPSJzaGFwZTQwMDctMiIgdHJhbnNmb3JtPSJ0cmFuc2xhdGUoMy43MjAzNSwtMS44NTUxNSkiPiYjeGE7CQkJPHRpdGxlIGlkPSJ0aXRsZTQwODUiPlNoZWV0LjQwMDc8L3RpdGxlPiYjeGE7CQkJPHBhdGggaWQ9InBhdGg0MDg3IiBpbmtzY2FwZTpjb25uZWN0b3ItY3VydmF0dXJlPSIwIiBzdHlsZT0iZmlsbDojM0Y1NzY1OyIgZD0iTTAsMy43MnYxMi42MmgxOS4yMlYzLjcySDB6Ii8+JiN4YTsJCTwvZz4mI3hhOwkJPGcgaWQ9InNoYXBlNDAwOC00Ij4mI3hhOwkJCTx0aXRsZSBpZD0idGl0bGU0MDkwIj5TaGVldC40MDA4PC90aXRsZT4mI3hhOwkJCTxwYXRoIGlkPSJwYXRoNDA5MiIgaW5rc2NhcGU6Y29ubmVjdG9yLWN1cnZhdHVyZT0iMCIgc3R5bGU9ImZpbGw6IzNGNTc2NTsiIGQ9Ik0wLDIuMzdjMCwxMS42MiwwLDExLjYyLDAsMTEuNjIgICAgIGMwLDEuNDIsMC45NiwyLjM1LDIuMzgsMi4zNWMxLjI4LDAsMi4zNy0wLjkzLDIuMzctMi4zNWMwLTExLjYyLDAtMTEuNjIsMC0xMS42MkM0Ljc1LDEuMTEsMy42NiwwLDIuMzgsMEMwLjk2LDAsMCwxLjExLDAsMi4zN3ogICAgICIvPiYjeGE7CQk8L2c+JiN4YTsJCTxnIGlkPSJzaGFwZTQwMDktNiIgdHJhbnNmb3JtPSJ0cmFuc2xhdGUoMjAuNjY4NikiPiYjeGE7CQkJPHRpdGxlIGlkPSJ0aXRsZTQwOTUiPlNoZWV0LjQwMDk8L3RpdGxlPiYjeGE7CQkJPHBhdGggaWQ9InBhdGg0MDk3IiBpbmtzY2FwZTpjb25uZWN0b3ItY3VydmF0dXJlPSIwIiBzdHlsZT0iZmlsbDojM0Y1NzY1OyIgZD0iTTAsMi4zN2MwLDExLjYyLDAsMTEuNjIsMCwxMS42MiAgICAgYzAsMS40MiwxLjA3LDIuMzUsMi4yNywyLjM1YzEuMjIsMCwyLjI4LTAuOTMsMi4yOC0yLjM1YzAtMTEuNjIsMC0xMS42MiwwLTExLjYyQzQuNTUsMS4xMSwzLjQ5LDAsMi4yNywwQzEuMDcsMCwwLDEuMTEsMCwyLjM3eiAgICAgIi8+JiN4YTsJCTwvZz4mI3hhOwk8L2c+JiN4YTs8L2c+JiN4YTs8L3N2Zz4=;" vertex="1" parent="RzjJ_zKFOmG12Z4Fz9ne-24">
          <mxGeometry x="355.5" y="17" width="25" height="16" as="geometry"/>
        </mxCell>
        <mxCell id="RzjJ_zKFOmG12Z4Fz9ne-36" value="" style="edgeStyle=orthogonalEdgeStyle;rounded=0;orthogonalLoop=1;jettySize=auto;html=1;" edge="1" parent="RzjJ_zKFOmG12Z4Fz9ne-24" source="RzjJ_zKFOmG12Z4Fz9ne-37" target="RzjJ_zKFOmG12Z4Fz9ne-35">
          <mxGeometry relative="1" as="geometry"/>
        </mxCell>
        <mxCell id="RzjJ_zKFOmG12Z4Fz9ne-37" value="" style="shape=image;verticalLabelPosition=bottom;labelBackgroundColor=#ffffff;verticalAlign=top;aspect=fixed;imageAspect=0;image=data:image/svg+xml,PHN2ZyB4bWxuczpjYz0iaHR0cDovL2NyZWF0aXZlY29tbW9ucy5vcmcvbnMjIiB4bWxuczpkYz0iaHR0cDovL3B1cmwub3JnL2RjL2VsZW1lbnRzLzEuMS8iIHhtbG5zOmlua3NjYXBlPSJodHRwOi8vd3d3Lmlua3NjYXBlLm9yZy9uYW1lc3BhY2VzL2lua3NjYXBlIiB4bWxuczpyZGY9Imh0dHA6Ly93d3cudzMub3JnLzE5OTkvMDIvMjItcmRmLXN5bnRheC1ucyMiIHhtbG5zOnNvZGlwb2RpPSJodHRwOi8vc29kaXBvZGkuc291cmNlZm9yZ2UubmV0L0RURC9zb2RpcG9kaS0wLmR0ZCIgeG1sbnM6c3ZnPSJodHRwOi8vd3d3LnczLm9yZy8yMDAwL3N2ZyIgeG1sbnM9Imh0dHA6Ly93d3cudzMub3JnLzIwMDAvc3ZnIiB4bWxuczp4bGluaz0iaHR0cDovL3d3dy53My5vcmcvMTk5OS94bGluayIgdmVyc2lvbj0iMS4xIiBpZD0ic3ZnNDEwMyIgaW5rc2NhcGU6dmVyc2lvbj0iMC45Mi4zICgyNDA1NTQ2LCAyMDE4LTAzLTExKSIgc29kaXBvZGk6ZG9jbmFtZT0iZGF0YV9waXBlbGluZXMuc3ZnIiB4PSIwcHgiIHk9IjBweCIgdmlld0JveD0iMCAwIDI1LjIyIDE2LjM0IiBzdHlsZT0iZW5hYmxlLWJhY2tncm91bmQ6bmV3IDAgMCAyNS4yMiAxNi4zNDsiIHhtbDpzcGFjZT0icHJlc2VydmUiPiYjeGE7PHNvZGlwb2RpOm5hbWVkdmlldyBib3JkZXJjb2xvcj0iIzY2NjY2NiIgYm9yZGVyb3BhY2l0eT0iMSIgZml0LW1hcmdpbi1ib3R0b209IjAiIGZpdC1tYXJnaW4tbGVmdD0iMCIgZml0LW1hcmdpbi1yaWdodD0iMCIgZml0LW1hcmdpbi10b3A9IjAiIGdyaWR0b2xlcmFuY2U9IjEwIiBndWlkZXRvbGVyYW5jZT0iMTAiIGlkPSJuYW1lZHZpZXc0MTA1IiBpbmtzY2FwZTpjdXJyZW50LWxheWVyPSJzdmc0MTAzIiBpbmtzY2FwZTpjeD0iMjUuMTg1MDk2IiBpbmtzY2FwZTpjeT0iNS4yMjQxOTYzIiBpbmtzY2FwZTpwYWdlb3BhY2l0eT0iMCIgaW5rc2NhcGU6cGFnZXNoYWRvdz0iMiIgaW5rc2NhcGU6d2luZG93LWhlaWdodD0iMTAxNyIgaW5rc2NhcGU6d2luZG93LW1heGltaXplZD0iMSIgaW5rc2NhcGU6d2luZG93LXdpZHRoPSIxOTIwIiBpbmtzY2FwZTp3aW5kb3cteD0iLTgiIGlua3NjYXBlOndpbmRvdy15PSItOCIgaW5rc2NhcGU6em9vbT0iMTkuODk0NjM2IiBvYmplY3R0b2xlcmFuY2U9IjEwIiBwYWdlY29sb3I9IiNmZmZmZmYiIHNob3dncmlkPSJmYWxzZSI+JiN4YTsJPC9zb2RpcG9kaTpuYW1lZHZpZXc+JiN4YTs8ZyBpZD0iZzQxMDEiIHRyYW5zZm9ybT0idHJhbnNsYXRlKDAsLTIuNDE4NjIyNWUtNSkiPiYjeGE7CTx0aXRsZSBpZD0idGl0bGU0MDgxIj5QYWdlLTE8L3RpdGxlPiYjeGE7CTxnIGlkPSJncm91cDQwMDYtMSI+JiN4YTsJCTx0aXRsZSBpZD0idGl0bGU0MDgzIj5EYXRhIFBpcGVsaW5lczwvdGl0bGU+JiN4YTsJCTxnIGlkPSJzaGFwZTQwMDctMiIgdHJhbnNmb3JtPSJ0cmFuc2xhdGUoMy43MjAzNSwtMS44NTUxNSkiPiYjeGE7CQkJPHRpdGxlIGlkPSJ0aXRsZTQwODUiPlNoZWV0LjQwMDc8L3RpdGxlPiYjeGE7CQkJPHBhdGggaWQ9InBhdGg0MDg3IiBpbmtzY2FwZTpjb25uZWN0b3ItY3VydmF0dXJlPSIwIiBzdHlsZT0iZmlsbDojM0Y1NzY1OyIgZD0iTTAsMy43MnYxMi42MmgxOS4yMlYzLjcySDB6Ii8+JiN4YTsJCTwvZz4mI3hhOwkJPGcgaWQ9InNoYXBlNDAwOC00Ij4mI3hhOwkJCTx0aXRsZSBpZD0idGl0bGU0MDkwIj5TaGVldC40MDA4PC90aXRsZT4mI3hhOwkJCTxwYXRoIGlkPSJwYXRoNDA5MiIgaW5rc2NhcGU6Y29ubmVjdG9yLWN1cnZhdHVyZT0iMCIgc3R5bGU9ImZpbGw6IzNGNTc2NTsiIGQ9Ik0wLDIuMzdjMCwxMS42MiwwLDExLjYyLDAsMTEuNjIgICAgIGMwLDEuNDIsMC45NiwyLjM1LDIuMzgsMi4zNWMxLjI4LDAsMi4zNy0wLjkzLDIuMzctMi4zNWMwLTExLjYyLDAtMTEuNjIsMC0xMS42MkM0Ljc1LDEuMTEsMy42NiwwLDIuMzgsMEMwLjk2LDAsMCwxLjExLDAsMi4zN3ogICAgICIvPiYjeGE7CQk8L2c+JiN4YTsJCTxnIGlkPSJzaGFwZTQwMDktNiIgdHJhbnNmb3JtPSJ0cmFuc2xhdGUoMjAuNjY4NikiPiYjeGE7CQkJPHRpdGxlIGlkPSJ0aXRsZTQwOTUiPlNoZWV0LjQwMDk8L3RpdGxlPiYjeGE7CQkJPHBhdGggaWQ9InBhdGg0MDk3IiBpbmtzY2FwZTpjb25uZWN0b3ItY3VydmF0dXJlPSIwIiBzdHlsZT0iZmlsbDojM0Y1NzY1OyIgZD0iTTAsMi4zN2MwLDExLjYyLDAsMTEuNjIsMCwxMS42MiAgICAgYzAsMS40MiwxLjA3LDIuMzUsMi4yNywyLjM1YzEuMjIsMCwyLjI4LTAuOTMsMi4yOC0yLjM1YzAtMTEuNjIsMC0xMS42MiwwLTExLjYyQzQuNTUsMS4xMSwzLjQ5LDAsMi4yNywwQzEuMDcsMCwwLDEuMTEsMCwyLjM3eiAgICAgIi8+JiN4YTsJCTwvZz4mI3hhOwk8L2c+JiN4YTs8L2c+JiN4YTs8L3N2Zz4=;" vertex="1" parent="RzjJ_zKFOmG12Z4Fz9ne-24">
          <mxGeometry x="272.5" y="17" width="25" height="16" as="geometry"/>
        </mxCell>
        <mxCell id="RzjJ_zKFOmG12Z4Fz9ne-38" value="" style="edgeStyle=orthogonalEdgeStyle;rounded=0;orthogonalLoop=1;jettySize=auto;html=1;" edge="1" parent="RzjJ_zKFOmG12Z4Fz9ne-24" source="RzjJ_zKFOmG12Z4Fz9ne-29" target="RzjJ_zKFOmG12Z4Fz9ne-37">
          <mxGeometry relative="1" as="geometry"/>
        </mxCell>
        <mxCell id="RzjJ_zKFOmG12Z4Fz9ne-39" value="积分链1" style="text;html=1;strokeColor=none;fillColor=none;align=center;verticalAlign=middle;whiteSpace=wrap;rounded=0;" vertex="1" parent="1">
          <mxGeometry x="94" y="263" width="50" height="20" as="geometry"/>
        </mxCell>
        <mxCell id="RzjJ_zKFOmG12Z4Fz9ne-40" value="" style="endArrow=classic;startArrow=classic;html=1;entryX=0.5;entryY=1;entryDx=0;entryDy=0;exitX=0.5;exitY=0;exitDx=0;exitDy=0;" edge="1" parent="1" source="RzjJ_zKFOmG12Z4Fz9ne-1" target="RzjJ_zKFOmG12Z4Fz9ne-25">
          <mxGeometry width="50" height="50" relative="1" as="geometry">
            <mxPoint x="90" y="450" as="sourcePoint"/>
            <mxPoint x="140" y="400" as="targetPoint"/>
          </mxGeometry>
        </mxCell>
        <mxCell id="RzjJ_zKFOmG12Z4Fz9ne-41" value="商城" style="shape=image;html=1;verticalAlign=top;verticalLabelPosition=bottom;labelBackgroundColor=#ffffff;imageAspect=0;aspect=fixed;image=https://cdn2.iconfinder.com/data/icons/architecture-interior/24/architecture-interior-09-128.png" vertex="1" parent="1">
          <mxGeometry x="180" y="40" width="128" height="128" as="geometry"/>
        </mxCell>
        <mxCell id="RzjJ_zKFOmG12Z4Fz9ne-42" value="会员体系" style="shape=image;html=1;verticalAlign=top;verticalLabelPosition=bottom;labelBackgroundColor=#ffffff;imageAspect=0;aspect=fixed;image=https://cdn4.iconfinder.com/data/icons/basic-ui-2-line/32/people-plus-add-friend-member-128.png" vertex="1" parent="1">
          <mxGeometry x="370" y="40" width="128" height="128" as="geometry"/>
        </mxCell>
        <mxCell id="RzjJ_zKFOmG12Z4Fz9ne-43" value="其他服务" style="shape=image;html=1;verticalAlign=top;verticalLabelPosition=bottom;labelBackgroundColor=#ffffff;imageAspect=0;aspect=fixed;image=https://cdn2.iconfinder.com/data/icons/architecture-interior/24/architecture-interior-04-128.png" vertex="1" parent="1">
          <mxGeometry x="540" y="40" width="128" height="128" as="geometry"/>
        </mxCell>
        <mxCell id="RzjJ_zKFOmG12Z4Fz9ne-44" value="" style="group" vertex="1" connectable="0" parent="1">
          <mxGeometry x="161.5" y="384" width="570" height="50" as="geometry"/>
        </mxCell>
        <mxCell id="RzjJ_zKFOmG12Z4Fz9ne-45" value="" style="rounded=1;whiteSpace=wrap;html=1;" vertex="1" parent="RzjJ_zKFOmG12Z4Fz9ne-44">
          <mxGeometry width="570" height="50" as="geometry"/>
        </mxCell>
        <mxCell id="RzjJ_zKFOmG12Z4Fz9ne-46" value="" style="shape=image;verticalLabelPosition=bottom;labelBackgroundColor=#ffffff;verticalAlign=top;aspect=fixed;imageAspect=0;image=data:image/svg+xml,PHN2ZyB4bWxuczpjYz0iaHR0cDovL2NyZWF0aXZlY29tbW9ucy5vcmcvbnMjIiB4bWxuczpkYz0iaHR0cDovL3B1cmwub3JnL2RjL2VsZW1lbnRzLzEuMS8iIHhtbG5zOmlua3NjYXBlPSJodHRwOi8vd3d3Lmlua3NjYXBlLm9yZy9uYW1lc3BhY2VzL2lua3NjYXBlIiB4bWxuczpyZGY9Imh0dHA6Ly93d3cudzMub3JnLzE5OTkvMDIvMjItcmRmLXN5bnRheC1ucyMiIHhtbG5zOnNvZGlwb2RpPSJodHRwOi8vc29kaXBvZGkuc291cmNlZm9yZ2UubmV0L0RURC9zb2RpcG9kaS0wLmR0ZCIgeG1sbnM6c3ZnPSJodHRwOi8vd3d3LnczLm9yZy8yMDAwL3N2ZyIgeG1sbnM9Imh0dHA6Ly93d3cudzMub3JnLzIwMDAvc3ZnIiB4bWxuczp4bGluaz0iaHR0cDovL3d3dy53My5vcmcvMTk5OS94bGluayIgdmVyc2lvbj0iMS4xIiBpZD0ic3ZnNDEwMyIgaW5rc2NhcGU6dmVyc2lvbj0iMC45Mi4zICgyNDA1NTQ2LCAyMDE4LTAzLTExKSIgc29kaXBvZGk6ZG9jbmFtZT0iZGF0YV9waXBlbGluZXMuc3ZnIiB4PSIwcHgiIHk9IjBweCIgdmlld0JveD0iMCAwIDI1LjIyIDE2LjM0IiBzdHlsZT0iZW5hYmxlLWJhY2tncm91bmQ6bmV3IDAgMCAyNS4yMiAxNi4zNDsiIHhtbDpzcGFjZT0icHJlc2VydmUiPiYjeGE7PHNvZGlwb2RpOm5hbWVkdmlldyBib3JkZXJjb2xvcj0iIzY2NjY2NiIgYm9yZGVyb3BhY2l0eT0iMSIgZml0LW1hcmdpbi1ib3R0b209IjAiIGZpdC1tYXJnaW4tbGVmdD0iMCIgZml0LW1hcmdpbi1yaWdodD0iMCIgZml0LW1hcmdpbi10b3A9IjAiIGdyaWR0b2xlcmFuY2U9IjEwIiBndWlkZXRvbGVyYW5jZT0iMTAiIGlkPSJuYW1lZHZpZXc0MTA1IiBpbmtzY2FwZTpjdXJyZW50LWxheWVyPSJzdmc0MTAzIiBpbmtzY2FwZTpjeD0iMjUuMTg1MDk2IiBpbmtzY2FwZTpjeT0iNS4yMjQxOTYzIiBpbmtzY2FwZTpwYWdlb3BhY2l0eT0iMCIgaW5rc2NhcGU6cGFnZXNoYWRvdz0iMiIgaW5rc2NhcGU6d2luZG93LWhlaWdodD0iMTAxNyIgaW5rc2NhcGU6d2luZG93LW1heGltaXplZD0iMSIgaW5rc2NhcGU6d2luZG93LXdpZHRoPSIxOTIwIiBpbmtzY2FwZTp3aW5kb3cteD0iLTgiIGlua3NjYXBlOndpbmRvdy15PSItOCIgaW5rc2NhcGU6em9vbT0iMTkuODk0NjM2IiBvYmplY3R0b2xlcmFuY2U9IjEwIiBwYWdlY29sb3I9IiNmZmZmZmYiIHNob3dncmlkPSJmYWxzZSI+JiN4YTsJPC9zb2RpcG9kaTpuYW1lZHZpZXc+JiN4YTs8ZyBpZD0iZzQxMDEiIHRyYW5zZm9ybT0idHJhbnNsYXRlKDAsLTIuNDE4NjIyNWUtNSkiPiYjeGE7CTx0aXRsZSBpZD0idGl0bGU0MDgxIj5QYWdlLTE8L3RpdGxlPiYjeGE7CTxnIGlkPSJncm91cDQwMDYtMSI+JiN4YTsJCTx0aXRsZSBpZD0idGl0bGU0MDgzIj5EYXRhIFBpcGVsaW5lczwvdGl0bGU+JiN4YTsJCTxnIGlkPSJzaGFwZTQwMDctMiIgdHJhbnNmb3JtPSJ0cmFuc2xhdGUoMy43MjAzNSwtMS44NTUxNSkiPiYjeGE7CQkJPHRpdGxlIGlkPSJ0aXRsZTQwODUiPlNoZWV0LjQwMDc8L3RpdGxlPiYjeGE7CQkJPHBhdGggaWQ9InBhdGg0MDg3IiBpbmtzY2FwZTpjb25uZWN0b3ItY3VydmF0dXJlPSIwIiBzdHlsZT0iZmlsbDojM0Y1NzY1OyIgZD0iTTAsMy43MnYxMi42MmgxOS4yMlYzLjcySDB6Ii8+JiN4YTsJCTwvZz4mI3hhOwkJPGcgaWQ9InNoYXBlNDAwOC00Ij4mI3hhOwkJCTx0aXRsZSBpZD0idGl0bGU0MDkwIj5TaGVldC40MDA4PC90aXRsZT4mI3hhOwkJCTxwYXRoIGlkPSJwYXRoNDA5MiIgaW5rc2NhcGU6Y29ubmVjdG9yLWN1cnZhdHVyZT0iMCIgc3R5bGU9ImZpbGw6IzNGNTc2NTsiIGQ9Ik0wLDIuMzdjMCwxMS42MiwwLDExLjYyLDAsMTEuNjIgICAgIGMwLDEuNDIsMC45NiwyLjM1LDIuMzgsMi4zNWMxLjI4LDAsMi4zNy0wLjkzLDIuMzctMi4zNWMwLTExLjYyLDAtMTEuNjIsMC0xMS42MkM0Ljc1LDEuMTEsMy42NiwwLDIuMzgsMEMwLjk2LDAsMCwxLjExLDAsMi4zN3ogICAgICIvPiYjeGE7CQk8L2c+JiN4YTsJCTxnIGlkPSJzaGFwZTQwMDktNiIgdHJhbnNmb3JtPSJ0cmFuc2xhdGUoMjAuNjY4NikiPiYjeGE7CQkJPHRpdGxlIGlkPSJ0aXRsZTQwOTUiPlNoZWV0LjQwMDk8L3RpdGxlPiYjeGE7CQkJPHBhdGggaWQ9InBhdGg0MDk3IiBpbmtzY2FwZTpjb25uZWN0b3ItY3VydmF0dXJlPSIwIiBzdHlsZT0iZmlsbDojM0Y1NzY1OyIgZD0iTTAsMi4zN2MwLDExLjYyLDAsMTEuNjIsMCwxMS42MiAgICAgYzAsMS40MiwxLjA3LDIuMzUsMi4yNywyLjM1YzEuMjIsMCwyLjI4LTAuOTMsMi4yOC0yLjM1YzAtMTEuNjIsMC0xMS42MiwwLTExLjYyQzQuNTUsMS4xMSwzLjQ5LDAsMi4yNywwQzEuMDcsMCwwLDEuMTEsMCwyLjM3eiAgICAgIi8+JiN4YTsJCTwvZz4mI3hhOwk8L2c+JiN4YTs8L2c+JiN4YTs8L3N2Zz4=;" vertex="1" parent="RzjJ_zKFOmG12Z4Fz9ne-44">
          <mxGeometry x="22.5" y="17" width="25" height="16" as="geometry"/>
        </mxCell>
        <mxCell id="RzjJ_zKFOmG12Z4Fz9ne-47" value="" style="shape=image;verticalLabelPosition=bottom;labelBackgroundColor=#ffffff;verticalAlign=top;aspect=fixed;imageAspect=0;image=data:image/svg+xml,PHN2ZyB4bWxuczpjYz0iaHR0cDovL2NyZWF0aXZlY29tbW9ucy5vcmcvbnMjIiB4bWxuczpkYz0iaHR0cDovL3B1cmwub3JnL2RjL2VsZW1lbnRzLzEuMS8iIHhtbG5zOmlua3NjYXBlPSJodHRwOi8vd3d3Lmlua3NjYXBlLm9yZy9uYW1lc3BhY2VzL2lua3NjYXBlIiB4bWxuczpyZGY9Imh0dHA6Ly93d3cudzMub3JnLzE5OTkvMDIvMjItcmRmLXN5bnRheC1ucyMiIHhtbG5zOnNvZGlwb2RpPSJodHRwOi8vc29kaXBvZGkuc291cmNlZm9yZ2UubmV0L0RURC9zb2RpcG9kaS0wLmR0ZCIgeG1sbnM6c3ZnPSJodHRwOi8vd3d3LnczLm9yZy8yMDAwL3N2ZyIgeG1sbnM9Imh0dHA6Ly93d3cudzMub3JnLzIwMDAvc3ZnIiB4bWxuczp4bGluaz0iaHR0cDovL3d3dy53My5vcmcvMTk5OS94bGluayIgdmVyc2lvbj0iMS4xIiBpZD0ic3ZnNDEwMyIgaW5rc2NhcGU6dmVyc2lvbj0iMC45Mi4zICgyNDA1NTQ2LCAyMDE4LTAzLTExKSIgc29kaXBvZGk6ZG9jbmFtZT0iZGF0YV9waXBlbGluZXMuc3ZnIiB4PSIwcHgiIHk9IjBweCIgdmlld0JveD0iMCAwIDI1LjIyIDE2LjM0IiBzdHlsZT0iZW5hYmxlLWJhY2tncm91bmQ6bmV3IDAgMCAyNS4yMiAxNi4zNDsiIHhtbDpzcGFjZT0icHJlc2VydmUiPiYjeGE7PHNvZGlwb2RpOm5hbWVkdmlldyBib3JkZXJjb2xvcj0iIzY2NjY2NiIgYm9yZGVyb3BhY2l0eT0iMSIgZml0LW1hcmdpbi1ib3R0b209IjAiIGZpdC1tYXJnaW4tbGVmdD0iMCIgZml0LW1hcmdpbi1yaWdodD0iMCIgZml0LW1hcmdpbi10b3A9IjAiIGdyaWR0b2xlcmFuY2U9IjEwIiBndWlkZXRvbGVyYW5jZT0iMTAiIGlkPSJuYW1lZHZpZXc0MTA1IiBpbmtzY2FwZTpjdXJyZW50LWxheWVyPSJzdmc0MTAzIiBpbmtzY2FwZTpjeD0iMjUuMTg1MDk2IiBpbmtzY2FwZTpjeT0iNS4yMjQxOTYzIiBpbmtzY2FwZTpwYWdlb3BhY2l0eT0iMCIgaW5rc2NhcGU6cGFnZXNoYWRvdz0iMiIgaW5rc2NhcGU6d2luZG93LWhlaWdodD0iMTAxNyIgaW5rc2NhcGU6d2luZG93LW1heGltaXplZD0iMSIgaW5rc2NhcGU6d2luZG93LXdpZHRoPSIxOTIwIiBpbmtzY2FwZTp3aW5kb3cteD0iLTgiIGlua3NjYXBlOndpbmRvdy15PSItOCIgaW5rc2NhcGU6em9vbT0iMTkuODk0NjM2IiBvYmplY3R0b2xlcmFuY2U9IjEwIiBwYWdlY29sb3I9IiNmZmZmZmYiIHNob3dncmlkPSJmYWxzZSI+JiN4YTsJPC9zb2RpcG9kaTpuYW1lZHZpZXc+JiN4YTs8ZyBpZD0iZzQxMDEiIHRyYW5zZm9ybT0idHJhbnNsYXRlKDAsLTIuNDE4NjIyNWUtNSkiPiYjeGE7CTx0aXRsZSBpZD0idGl0bGU0MDgxIj5QYWdlLTE8L3RpdGxlPiYjeGE7CTxnIGlkPSJncm91cDQwMDYtMSI+JiN4YTsJCTx0aXRsZSBpZD0idGl0bGU0MDgzIj5EYXRhIFBpcGVsaW5lczwvdGl0bGU+JiN4YTsJCTxnIGlkPSJzaGFwZTQwMDctMiIgdHJhbnNmb3JtPSJ0cmFuc2xhdGUoMy43MjAzNSwtMS44NTUxNSkiPiYjeGE7CQkJPHRpdGxlIGlkPSJ0aXRsZTQwODUiPlNoZWV0LjQwMDc8L3RpdGxlPiYjeGE7CQkJPHBhdGggaWQ9InBhdGg0MDg3IiBpbmtzY2FwZTpjb25uZWN0b3ItY3VydmF0dXJlPSIwIiBzdHlsZT0iZmlsbDojM0Y1NzY1OyIgZD0iTTAsMy43MnYxMi42MmgxOS4yMlYzLjcySDB6Ii8+JiN4YTsJCTwvZz4mI3hhOwkJPGcgaWQ9InNoYXBlNDAwOC00Ij4mI3hhOwkJCTx0aXRsZSBpZD0idGl0bGU0MDkwIj5TaGVldC40MDA4PC90aXRsZT4mI3hhOwkJCTxwYXRoIGlkPSJwYXRoNDA5MiIgaW5rc2NhcGU6Y29ubmVjdG9yLWN1cnZhdHVyZT0iMCIgc3R5bGU9ImZpbGw6IzNGNTc2NTsiIGQ9Ik0wLDIuMzdjMCwxMS42MiwwLDExLjYyLDAsMTEuNjIgICAgIGMwLDEuNDIsMC45NiwyLjM1LDIuMzgsMi4zNWMxLjI4LDAsMi4zNy0wLjkzLDIuMzctMi4zNWMwLTExLjYyLDAtMTEuNjIsMC0xMS42MkM0Ljc1LDEuMTEsMy42NiwwLDIuMzgsMEMwLjk2LDAsMCwxLjExLDAsMi4zN3ogICAgICIvPiYjeGE7CQk8L2c+JiN4YTsJCTxnIGlkPSJzaGFwZTQwMDktNiIgdHJhbnNmb3JtPSJ0cmFuc2xhdGUoMjAuNjY4NikiPiYjeGE7CQkJPHRpdGxlIGlkPSJ0aXRsZTQwOTUiPlNoZWV0LjQwMDk8L3RpdGxlPiYjeGE7CQkJPHBhdGggaWQ9InBhdGg0MDk3IiBpbmtzY2FwZTpjb25uZWN0b3ItY3VydmF0dXJlPSIwIiBzdHlsZT0iZmlsbDojM0Y1NzY1OyIgZD0iTTAsMi4zN2MwLDExLjYyLDAsMTEuNjIsMCwxMS42MiAgICAgYzAsMS40MiwxLjA3LDIuMzUsMi4yNywyLjM1YzEuMjIsMCwyLjI4LTAuOTMsMi4yOC0yLjM1YzAtMTEuNjIsMC0xMS42MiwwLTExLjYyQzQuNTUsMS4xMSwzLjQ5LDAsMi4yNywwQzEuMDcsMCwwLDEuMTEsMCwyLjM3eiAgICAgIi8+JiN4YTsJCTwvZz4mI3hhOwk8L2c+JiN4YTs8L2c+JiN4YTs8L3N2Zz4=;" vertex="1" parent="RzjJ_zKFOmG12Z4Fz9ne-44">
          <mxGeometry x="105.5" y="17" width="25" height="16" as="geometry"/>
        </mxCell>
        <mxCell id="RzjJ_zKFOmG12Z4Fz9ne-48" value="" style="edgeStyle=orthogonalEdgeStyle;rounded=0;orthogonalLoop=1;jettySize=auto;html=1;" edge="1" parent="RzjJ_zKFOmG12Z4Fz9ne-44" source="RzjJ_zKFOmG12Z4Fz9ne-46" target="RzjJ_zKFOmG12Z4Fz9ne-47">
          <mxGeometry relative="1" as="geometry"/>
        </mxCell>
        <mxCell id="RzjJ_zKFOmG12Z4Fz9ne-49" value="" style="shape=image;verticalLabelPosition=bottom;labelBackgroundColor=#ffffff;verticalAlign=top;aspect=fixed;imageAspect=0;image=data:image/svg+xml,PHN2ZyB4bWxuczpjYz0iaHR0cDovL2NyZWF0aXZlY29tbW9ucy5vcmcvbnMjIiB4bWxuczpkYz0iaHR0cDovL3B1cmwub3JnL2RjL2VsZW1lbnRzLzEuMS8iIHhtbG5zOmlua3NjYXBlPSJodHRwOi8vd3d3Lmlua3NjYXBlLm9yZy9uYW1lc3BhY2VzL2lua3NjYXBlIiB4bWxuczpyZGY9Imh0dHA6Ly93d3cudzMub3JnLzE5OTkvMDIvMjItcmRmLXN5bnRheC1ucyMiIHhtbG5zOnNvZGlwb2RpPSJodHRwOi8vc29kaXBvZGkuc291cmNlZm9yZ2UubmV0L0RURC9zb2RpcG9kaS0wLmR0ZCIgeG1sbnM6c3ZnPSJodHRwOi8vd3d3LnczLm9yZy8yMDAwL3N2ZyIgeG1sbnM9Imh0dHA6Ly93d3cudzMub3JnLzIwMDAvc3ZnIiB4bWxuczp4bGluaz0iaHR0cDovL3d3dy53My5vcmcvMTk5OS94bGluayIgdmVyc2lvbj0iMS4xIiBpZD0ic3ZnNDEwMyIgaW5rc2NhcGU6dmVyc2lvbj0iMC45Mi4zICgyNDA1NTQ2LCAyMDE4LTAzLTExKSIgc29kaXBvZGk6ZG9jbmFtZT0iZGF0YV9waXBlbGluZXMuc3ZnIiB4PSIwcHgiIHk9IjBweCIgdmlld0JveD0iMCAwIDI1LjIyIDE2LjM0IiBzdHlsZT0iZW5hYmxlLWJhY2tncm91bmQ6bmV3IDAgMCAyNS4yMiAxNi4zNDsiIHhtbDpzcGFjZT0icHJlc2VydmUiPiYjeGE7PHNvZGlwb2RpOm5hbWVkdmlldyBib3JkZXJjb2xvcj0iIzY2NjY2NiIgYm9yZGVyb3BhY2l0eT0iMSIgZml0LW1hcmdpbi1ib3R0b209IjAiIGZpdC1tYXJnaW4tbGVmdD0iMCIgZml0LW1hcmdpbi1yaWdodD0iMCIgZml0LW1hcmdpbi10b3A9IjAiIGdyaWR0b2xlcmFuY2U9IjEwIiBndWlkZXRvbGVyYW5jZT0iMTAiIGlkPSJuYW1lZHZpZXc0MTA1IiBpbmtzY2FwZTpjdXJyZW50LWxheWVyPSJzdmc0MTAzIiBpbmtzY2FwZTpjeD0iMjUuMTg1MDk2IiBpbmtzY2FwZTpjeT0iNS4yMjQxOTYzIiBpbmtzY2FwZTpwYWdlb3BhY2l0eT0iMCIgaW5rc2NhcGU6cGFnZXNoYWRvdz0iMiIgaW5rc2NhcGU6d2luZG93LWhlaWdodD0iMTAxNyIgaW5rc2NhcGU6d2luZG93LW1heGltaXplZD0iMSIgaW5rc2NhcGU6d2luZG93LXdpZHRoPSIxOTIwIiBpbmtzY2FwZTp3aW5kb3cteD0iLTgiIGlua3NjYXBlOndpbmRvdy15PSItOCIgaW5rc2NhcGU6em9vbT0iMTkuODk0NjM2IiBvYmplY3R0b2xlcmFuY2U9IjEwIiBwYWdlY29sb3I9IiNmZmZmZmYiIHNob3dncmlkPSJmYWxzZSI+JiN4YTsJPC9zb2RpcG9kaTpuYW1lZHZpZXc+JiN4YTs8ZyBpZD0iZzQxMDEiIHRyYW5zZm9ybT0idHJhbnNsYXRlKDAsLTIuNDE4NjIyNWUtNSkiPiYjeGE7CTx0aXRsZSBpZD0idGl0bGU0MDgxIj5QYWdlLTE8L3RpdGxlPiYjeGE7CTxnIGlkPSJncm91cDQwMDYtMSI+JiN4YTsJCTx0aXRsZSBpZD0idGl0bGU0MDgzIj5EYXRhIFBpcGVsaW5lczwvdGl0bGU+JiN4YTsJCTxnIGlkPSJzaGFwZTQwMDctMiIgdHJhbnNmb3JtPSJ0cmFuc2xhdGUoMy43MjAzNSwtMS44NTUxNSkiPiYjeGE7CQkJPHRpdGxlIGlkPSJ0aXRsZTQwODUiPlNoZWV0LjQwMDc8L3RpdGxlPiYjeGE7CQkJPHBhdGggaWQ9InBhdGg0MDg3IiBpbmtzY2FwZTpjb25uZWN0b3ItY3VydmF0dXJlPSIwIiBzdHlsZT0iZmlsbDojM0Y1NzY1OyIgZD0iTTAsMy43MnYxMi42MmgxOS4yMlYzLjcySDB6Ii8+JiN4YTsJCTwvZz4mI3hhOwkJPGcgaWQ9InNoYXBlNDAwOC00Ij4mI3hhOwkJCTx0aXRsZSBpZD0idGl0bGU0MDkwIj5TaGVldC40MDA4PC90aXRsZT4mI3hhOwkJCTxwYXRoIGlkPSJwYXRoNDA5MiIgaW5rc2NhcGU6Y29ubmVjdG9yLWN1cnZhdHVyZT0iMCIgc3R5bGU9ImZpbGw6IzNGNTc2NTsiIGQ9Ik0wLDIuMzdjMCwxMS42MiwwLDExLjYyLDAsMTEuNjIgICAgIGMwLDEuNDIsMC45NiwyLjM1LDIuMzgsMi4zNWMxLjI4LDAsMi4zNy0wLjkzLDIuMzctMi4zNWMwLTExLjYyLDAtMTEuNjIsMC0xMS42MkM0Ljc1LDEuMTEsMy42NiwwLDIuMzgsMEMwLjk2LDAsMCwxLjExLDAsMi4zN3ogICAgICIvPiYjeGE7CQk8L2c+JiN4YTsJCTxnIGlkPSJzaGFwZTQwMDktNiIgdHJhbnNmb3JtPSJ0cmFuc2xhdGUoMjAuNjY4NikiPiYjeGE7CQkJPHRpdGxlIGlkPSJ0aXRsZTQwOTUiPlNoZWV0LjQwMDk8L3RpdGxlPiYjeGE7CQkJPHBhdGggaWQ9InBhdGg0MDk3IiBpbmtzY2FwZTpjb25uZWN0b3ItY3VydmF0dXJlPSIwIiBzdHlsZT0iZmlsbDojM0Y1NzY1OyIgZD0iTTAsMi4zN2MwLDExLjYyLDAsMTEuNjIsMCwxMS42MiAgICAgYzAsMS40MiwxLjA3LDIuMzUsMi4yNywyLjM1YzEuMjIsMCwyLjI4LTAuOTMsMi4yOC0yLjM1YzAtMTEuNjIsMC0xMS42MiwwLTExLjYyQzQuNTUsMS4xMSwzLjQ5LDAsMi4yNywwQzEuMDcsMCwwLDEuMTEsMCwyLjM3eiAgICAgIi8+JiN4YTsJCTwvZz4mI3hhOwk8L2c+JiN4YTs8L2c+JiN4YTs8L3N2Zz4=;" vertex="1" parent="RzjJ_zKFOmG12Z4Fz9ne-44">
          <mxGeometry x="189.5" y="17" width="25" height="16" as="geometry"/>
        </mxCell>
        <mxCell id="RzjJ_zKFOmG12Z4Fz9ne-50" value="" style="edgeStyle=orthogonalEdgeStyle;rounded=0;orthogonalLoop=1;jettySize=auto;html=1;" edge="1" parent="RzjJ_zKFOmG12Z4Fz9ne-44" source="RzjJ_zKFOmG12Z4Fz9ne-47" target="RzjJ_zKFOmG12Z4Fz9ne-49">
          <mxGeometry relative="1" as="geometry"/>
        </mxCell>
        <mxCell id="RzjJ_zKFOmG12Z4Fz9ne-51" value="" style="shape=image;verticalLabelPosition=bottom;labelBackgroundColor=#ffffff;verticalAlign=top;aspect=fixed;imageAspect=0;image=data:image/svg+xml,PHN2ZyB4bWxuczpjYz0iaHR0cDovL2NyZWF0aXZlY29tbW9ucy5vcmcvbnMjIiB4bWxuczpkYz0iaHR0cDovL3B1cmwub3JnL2RjL2VsZW1lbnRzLzEuMS8iIHhtbG5zOmlua3NjYXBlPSJodHRwOi8vd3d3Lmlua3NjYXBlLm9yZy9uYW1lc3BhY2VzL2lua3NjYXBlIiB4bWxuczpyZGY9Imh0dHA6Ly93d3cudzMub3JnLzE5OTkvMDIvMjItcmRmLXN5bnRheC1ucyMiIHhtbG5zOnNvZGlwb2RpPSJodHRwOi8vc29kaXBvZGkuc291cmNlZm9yZ2UubmV0L0RURC9zb2RpcG9kaS0wLmR0ZCIgeG1sbnM6c3ZnPSJodHRwOi8vd3d3LnczLm9yZy8yMDAwL3N2ZyIgeG1sbnM9Imh0dHA6Ly93d3cudzMub3JnLzIwMDAvc3ZnIiB4bWxuczp4bGluaz0iaHR0cDovL3d3dy53My5vcmcvMTk5OS94bGluayIgdmVyc2lvbj0iMS4xIiBpZD0ic3ZnNDEwMyIgaW5rc2NhcGU6dmVyc2lvbj0iMC45Mi4zICgyNDA1NTQ2LCAyMDE4LTAzLTExKSIgc29kaXBvZGk6ZG9jbmFtZT0iZGF0YV9waXBlbGluZXMuc3ZnIiB4PSIwcHgiIHk9IjBweCIgdmlld0JveD0iMCAwIDI1LjIyIDE2LjM0IiBzdHlsZT0iZW5hYmxlLWJhY2tncm91bmQ6bmV3IDAgMCAyNS4yMiAxNi4zNDsiIHhtbDpzcGFjZT0icHJlc2VydmUiPiYjeGE7PHNvZGlwb2RpOm5hbWVkdmlldyBib3JkZXJjb2xvcj0iIzY2NjY2NiIgYm9yZGVyb3BhY2l0eT0iMSIgZml0LW1hcmdpbi1ib3R0b209IjAiIGZpdC1tYXJnaW4tbGVmdD0iMCIgZml0LW1hcmdpbi1yaWdodD0iMCIgZml0LW1hcmdpbi10b3A9IjAiIGdyaWR0b2xlcmFuY2U9IjEwIiBndWlkZXRvbGVyYW5jZT0iMTAiIGlkPSJuYW1lZHZpZXc0MTA1IiBpbmtzY2FwZTpjdXJyZW50LWxheWVyPSJzdmc0MTAzIiBpbmtzY2FwZTpjeD0iMjUuMTg1MDk2IiBpbmtzY2FwZTpjeT0iNS4yMjQxOTYzIiBpbmtzY2FwZTpwYWdlb3BhY2l0eT0iMCIgaW5rc2NhcGU6cGFnZXNoYWRvdz0iMiIgaW5rc2NhcGU6d2luZG93LWhlaWdodD0iMTAxNyIgaW5rc2NhcGU6d2luZG93LW1heGltaXplZD0iMSIgaW5rc2NhcGU6d2luZG93LXdpZHRoPSIxOTIwIiBpbmtzY2FwZTp3aW5kb3cteD0iLTgiIGlua3NjYXBlOndpbmRvdy15PSItOCIgaW5rc2NhcGU6em9vbT0iMTkuODk0NjM2IiBvYmplY3R0b2xlcmFuY2U9IjEwIiBwYWdlY29sb3I9IiNmZmZmZmYiIHNob3dncmlkPSJmYWxzZSI+JiN4YTsJPC9zb2RpcG9kaTpuYW1lZHZpZXc+JiN4YTs8ZyBpZD0iZzQxMDEiIHRyYW5zZm9ybT0idHJhbnNsYXRlKDAsLTIuNDE4NjIyNWUtNSkiPiYjeGE7CTx0aXRsZSBpZD0idGl0bGU0MDgxIj5QYWdlLTE8L3RpdGxlPiYjeGE7CTxnIGlkPSJncm91cDQwMDYtMSI+JiN4YTsJCTx0aXRsZSBpZD0idGl0bGU0MDgzIj5EYXRhIFBpcGVsaW5lczwvdGl0bGU+JiN4YTsJCTxnIGlkPSJzaGFwZTQwMDctMiIgdHJhbnNmb3JtPSJ0cmFuc2xhdGUoMy43MjAzNSwtMS44NTUxNSkiPiYjeGE7CQkJPHRpdGxlIGlkPSJ0aXRsZTQwODUiPlNoZWV0LjQwMDc8L3RpdGxlPiYjeGE7CQkJPHBhdGggaWQ9InBhdGg0MDg3IiBpbmtzY2FwZTpjb25uZWN0b3ItY3VydmF0dXJlPSIwIiBzdHlsZT0iZmlsbDojM0Y1NzY1OyIgZD0iTTAsMy43MnYxMi42MmgxOS4yMlYzLjcySDB6Ii8+JiN4YTsJCTwvZz4mI3hhOwkJPGcgaWQ9InNoYXBlNDAwOC00Ij4mI3hhOwkJCTx0aXRsZSBpZD0idGl0bGU0MDkwIj5TaGVldC40MDA4PC90aXRsZT4mI3hhOwkJCTxwYXRoIGlkPSJwYXRoNDA5MiIgaW5rc2NhcGU6Y29ubmVjdG9yLWN1cnZhdHVyZT0iMCIgc3R5bGU9ImZpbGw6IzNGNTc2NTsiIGQ9Ik0wLDIuMzdjMCwxMS42MiwwLDExLjYyLDAsMTEuNjIgICAgIGMwLDEuNDIsMC45NiwyLjM1LDIuMzgsMi4zNWMxLjI4LDAsMi4zNy0wLjkzLDIuMzctMi4zNWMwLTExLjYyLDAtMTEuNjIsMC0xMS42MkM0Ljc1LDEuMTEsMy42NiwwLDIuMzgsMEMwLjk2LDAsMCwxLjExLDAsMi4zN3ogICAgICIvPiYjeGE7CQk8L2c+JiN4YTsJCTxnIGlkPSJzaGFwZTQwMDktNiIgdHJhbnNmb3JtPSJ0cmFuc2xhdGUoMjAuNjY4NikiPiYjeGE7CQkJPHRpdGxlIGlkPSJ0aXRsZTQwOTUiPlNoZWV0LjQwMDk8L3RpdGxlPiYjeGE7CQkJPHBhdGggaWQ9InBhdGg0MDk3IiBpbmtzY2FwZTpjb25uZWN0b3ItY3VydmF0dXJlPSIwIiBzdHlsZT0iZmlsbDojM0Y1NzY1OyIgZD0iTTAsMi4zN2MwLDExLjYyLDAsMTEuNjIsMCwxMS42MiAgICAgYzAsMS40MiwxLjA3LDIuMzUsMi4yNywyLjM1YzEuMjIsMCwyLjI4LTAuOTMsMi4yOC0yLjM1YzAtMTEuNjIsMC0xMS42MiwwLTExLjYyQzQuNTUsMS4xMSwzLjQ5LDAsMi4yNywwQzEuMDcsMCwwLDEuMTEsMCwyLjM3eiAgICAgIi8+JiN4YTsJCTwvZz4mI3hhOwk8L2c+JiN4YTs8L2c+JiN4YTs8L3N2Zz4=;" vertex="1" parent="RzjJ_zKFOmG12Z4Fz9ne-44">
          <mxGeometry x="522.5" y="17" width="25" height="16" as="geometry"/>
        </mxCell>
        <mxCell id="RzjJ_zKFOmG12Z4Fz9ne-52" value="" style="edgeStyle=orthogonalEdgeStyle;rounded=0;orthogonalLoop=1;jettySize=auto;html=1;" edge="1" parent="RzjJ_zKFOmG12Z4Fz9ne-44" source="RzjJ_zKFOmG12Z4Fz9ne-53" target="RzjJ_zKFOmG12Z4Fz9ne-51">
          <mxGeometry relative="1" as="geometry"/>
        </mxCell>
        <mxCell id="RzjJ_zKFOmG12Z4Fz9ne-53" value="" style="shape=image;verticalLabelPosition=bottom;labelBackgroundColor=#ffffff;verticalAlign=top;aspect=fixed;imageAspect=0;image=data:image/svg+xml,PHN2ZyB4bWxuczpjYz0iaHR0cDovL2NyZWF0aXZlY29tbW9ucy5vcmcvbnMjIiB4bWxuczpkYz0iaHR0cDovL3B1cmwub3JnL2RjL2VsZW1lbnRzLzEuMS8iIHhtbG5zOmlua3NjYXBlPSJodHRwOi8vd3d3Lmlua3NjYXBlLm9yZy9uYW1lc3BhY2VzL2lua3NjYXBlIiB4bWxuczpyZGY9Imh0dHA6Ly93d3cudzMub3JnLzE5OTkvMDIvMjItcmRmLXN5bnRheC1ucyMiIHhtbG5zOnNvZGlwb2RpPSJodHRwOi8vc29kaXBvZGkuc291cmNlZm9yZ2UubmV0L0RURC9zb2RpcG9kaS0wLmR0ZCIgeG1sbnM6c3ZnPSJodHRwOi8vd3d3LnczLm9yZy8yMDAwL3N2ZyIgeG1sbnM9Imh0dHA6Ly93d3cudzMub3JnLzIwMDAvc3ZnIiB4bWxuczp4bGluaz0iaHR0cDovL3d3dy53My5vcmcvMTk5OS94bGluayIgdmVyc2lvbj0iMS4xIiBpZD0ic3ZnNDEwMyIgaW5rc2NhcGU6dmVyc2lvbj0iMC45Mi4zICgyNDA1NTQ2LCAyMDE4LTAzLTExKSIgc29kaXBvZGk6ZG9jbmFtZT0iZGF0YV9waXBlbGluZXMuc3ZnIiB4PSIwcHgiIHk9IjBweCIgdmlld0JveD0iMCAwIDI1LjIyIDE2LjM0IiBzdHlsZT0iZW5hYmxlLWJhY2tncm91bmQ6bmV3IDAgMCAyNS4yMiAxNi4zNDsiIHhtbDpzcGFjZT0icHJlc2VydmUiPiYjeGE7PHNvZGlwb2RpOm5hbWVkdmlldyBib3JkZXJjb2xvcj0iIzY2NjY2NiIgYm9yZGVyb3BhY2l0eT0iMSIgZml0LW1hcmdpbi1ib3R0b209IjAiIGZpdC1tYXJnaW4tbGVmdD0iMCIgZml0LW1hcmdpbi1yaWdodD0iMCIgZml0LW1hcmdpbi10b3A9IjAiIGdyaWR0b2xlcmFuY2U9IjEwIiBndWlkZXRvbGVyYW5jZT0iMTAiIGlkPSJuYW1lZHZpZXc0MTA1IiBpbmtzY2FwZTpjdXJyZW50LWxheWVyPSJzdmc0MTAzIiBpbmtzY2FwZTpjeD0iMjUuMTg1MDk2IiBpbmtzY2FwZTpjeT0iNS4yMjQxOTYzIiBpbmtzY2FwZTpwYWdlb3BhY2l0eT0iMCIgaW5rc2NhcGU6cGFnZXNoYWRvdz0iMiIgaW5rc2NhcGU6d2luZG93LWhlaWdodD0iMTAxNyIgaW5rc2NhcGU6d2luZG93LW1heGltaXplZD0iMSIgaW5rc2NhcGU6d2luZG93LXdpZHRoPSIxOTIwIiBpbmtzY2FwZTp3aW5kb3cteD0iLTgiIGlua3NjYXBlOndpbmRvdy15PSItOCIgaW5rc2NhcGU6em9vbT0iMTkuODk0NjM2IiBvYmplY3R0b2xlcmFuY2U9IjEwIiBwYWdlY29sb3I9IiNmZmZmZmYiIHNob3dncmlkPSJmYWxzZSI+JiN4YTsJPC9zb2RpcG9kaTpuYW1lZHZpZXc+JiN4YTs8ZyBpZD0iZzQxMDEiIHRyYW5zZm9ybT0idHJhbnNsYXRlKDAsLTIuNDE4NjIyNWUtNSkiPiYjeGE7CTx0aXRsZSBpZD0idGl0bGU0MDgxIj5QYWdlLTE8L3RpdGxlPiYjeGE7CTxnIGlkPSJncm91cDQwMDYtMSI+JiN4YTsJCTx0aXRsZSBpZD0idGl0bGU0MDgzIj5EYXRhIFBpcGVsaW5lczwvdGl0bGU+JiN4YTsJCTxnIGlkPSJzaGFwZTQwMDctMiIgdHJhbnNmb3JtPSJ0cmFuc2xhdGUoMy43MjAzNSwtMS44NTUxNSkiPiYjeGE7CQkJPHRpdGxlIGlkPSJ0aXRsZTQwODUiPlNoZWV0LjQwMDc8L3RpdGxlPiYjeGE7CQkJPHBhdGggaWQ9InBhdGg0MDg3IiBpbmtzY2FwZTpjb25uZWN0b3ItY3VydmF0dXJlPSIwIiBzdHlsZT0iZmlsbDojM0Y1NzY1OyIgZD0iTTAsMy43MnYxMi42MmgxOS4yMlYzLjcySDB6Ii8+JiN4YTsJCTwvZz4mI3hhOwkJPGcgaWQ9InNoYXBlNDAwOC00Ij4mI3hhOwkJCTx0aXRsZSBpZD0idGl0bGU0MDkwIj5TaGVldC40MDA4PC90aXRsZT4mI3hhOwkJCTxwYXRoIGlkPSJwYXRoNDA5MiIgaW5rc2NhcGU6Y29ubmVjdG9yLWN1cnZhdHVyZT0iMCIgc3R5bGU9ImZpbGw6IzNGNTc2NTsiIGQ9Ik0wLDIuMzdjMCwxMS42MiwwLDExLjYyLDAsMTEuNjIgICAgIGMwLDEuNDIsMC45NiwyLjM1LDIuMzgsMi4zNWMxLjI4LDAsMi4zNy0wLjkzLDIuMzctMi4zNWMwLTExLjYyLDAtMTEuNjIsMC0xMS42MkM0Ljc1LDEuMTEsMy42NiwwLDIuMzgsMEMwLjk2LDAsMCwxLjExLDAsMi4zN3ogICAgICIvPiYjeGE7CQk8L2c+JiN4YTsJCTxnIGlkPSJzaGFwZTQwMDktNiIgdHJhbnNmb3JtPSJ0cmFuc2xhdGUoMjAuNjY4NikiPiYjeGE7CQkJPHRpdGxlIGlkPSJ0aXRsZTQwOTUiPlNoZWV0LjQwMDk8L3RpdGxlPiYjeGE7CQkJPHBhdGggaWQ9InBhdGg0MDk3IiBpbmtzY2FwZTpjb25uZWN0b3ItY3VydmF0dXJlPSIwIiBzdHlsZT0iZmlsbDojM0Y1NzY1OyIgZD0iTTAsMi4zN2MwLDExLjYyLDAsMTEuNjIsMCwxMS42MiAgICAgYzAsMS40MiwxLjA3LDIuMzUsMi4yNywyLjM1YzEuMjIsMCwyLjI4LTAuOTMsMi4yOC0yLjM1YzAtMTEuNjIsMC0xMS42MiwwLTExLjYyQzQuNTUsMS4xMSwzLjQ5LDAsMi4yNywwQzEuMDcsMCwwLDEuMTEsMCwyLjM3eiAgICAgIi8+JiN4YTsJCTwvZz4mI3hhOwk8L2c+JiN4YTs8L2c+JiN4YTs8L3N2Zz4=;" vertex="1" parent="RzjJ_zKFOmG12Z4Fz9ne-44">
          <mxGeometry x="439.5" y="17" width="25" height="16" as="geometry"/>
        </mxCell>
        <mxCell id="RzjJ_zKFOmG12Z4Fz9ne-54" value="" style="edgeStyle=orthogonalEdgeStyle;rounded=0;orthogonalLoop=1;jettySize=auto;html=1;" edge="1" parent="RzjJ_zKFOmG12Z4Fz9ne-44" source="RzjJ_zKFOmG12Z4Fz9ne-55" target="RzjJ_zKFOmG12Z4Fz9ne-53">
          <mxGeometry relative="1" as="geometry"/>
        </mxCell>
        <mxCell id="RzjJ_zKFOmG12Z4Fz9ne-55" value="" style="shape=image;verticalLabelPosition=bottom;labelBackgroundColor=#ffffff;verticalAlign=top;aspect=fixed;imageAspect=0;image=data:image/svg+xml,PHN2ZyB4bWxuczpjYz0iaHR0cDovL2NyZWF0aXZlY29tbW9ucy5vcmcvbnMjIiB4bWxuczpkYz0iaHR0cDovL3B1cmwub3JnL2RjL2VsZW1lbnRzLzEuMS8iIHhtbG5zOmlua3NjYXBlPSJodHRwOi8vd3d3Lmlua3NjYXBlLm9yZy9uYW1lc3BhY2VzL2lua3NjYXBlIiB4bWxuczpyZGY9Imh0dHA6Ly93d3cudzMub3JnLzE5OTkvMDIvMjItcmRmLXN5bnRheC1ucyMiIHhtbG5zOnNvZGlwb2RpPSJodHRwOi8vc29kaXBvZGkuc291cmNlZm9yZ2UubmV0L0RURC9zb2RpcG9kaS0wLmR0ZCIgeG1sbnM6c3ZnPSJodHRwOi8vd3d3LnczLm9yZy8yMDAwL3N2ZyIgeG1sbnM9Imh0dHA6Ly93d3cudzMub3JnLzIwMDAvc3ZnIiB4bWxuczp4bGluaz0iaHR0cDovL3d3dy53My5vcmcvMTk5OS94bGluayIgdmVyc2lvbj0iMS4xIiBpZD0ic3ZnNDEwMyIgaW5rc2NhcGU6dmVyc2lvbj0iMC45Mi4zICgyNDA1NTQ2LCAyMDE4LTAzLTExKSIgc29kaXBvZGk6ZG9jbmFtZT0iZGF0YV9waXBlbGluZXMuc3ZnIiB4PSIwcHgiIHk9IjBweCIgdmlld0JveD0iMCAwIDI1LjIyIDE2LjM0IiBzdHlsZT0iZW5hYmxlLWJhY2tncm91bmQ6bmV3IDAgMCAyNS4yMiAxNi4zNDsiIHhtbDpzcGFjZT0icHJlc2VydmUiPiYjeGE7PHNvZGlwb2RpOm5hbWVkdmlldyBib3JkZXJjb2xvcj0iIzY2NjY2NiIgYm9yZGVyb3BhY2l0eT0iMSIgZml0LW1hcmdpbi1ib3R0b209IjAiIGZpdC1tYXJnaW4tbGVmdD0iMCIgZml0LW1hcmdpbi1yaWdodD0iMCIgZml0LW1hcmdpbi10b3A9IjAiIGdyaWR0b2xlcmFuY2U9IjEwIiBndWlkZXRvbGVyYW5jZT0iMTAiIGlkPSJuYW1lZHZpZXc0MTA1IiBpbmtzY2FwZTpjdXJyZW50LWxheWVyPSJzdmc0MTAzIiBpbmtzY2FwZTpjeD0iMjUuMTg1MDk2IiBpbmtzY2FwZTpjeT0iNS4yMjQxOTYzIiBpbmtzY2FwZTpwYWdlb3BhY2l0eT0iMCIgaW5rc2NhcGU6cGFnZXNoYWRvdz0iMiIgaW5rc2NhcGU6d2luZG93LWhlaWdodD0iMTAxNyIgaW5rc2NhcGU6d2luZG93LW1heGltaXplZD0iMSIgaW5rc2NhcGU6d2luZG93LXdpZHRoPSIxOTIwIiBpbmtzY2FwZTp3aW5kb3cteD0iLTgiIGlua3NjYXBlOndpbmRvdy15PSItOCIgaW5rc2NhcGU6em9vbT0iMTkuODk0NjM2IiBvYmplY3R0b2xlcmFuY2U9IjEwIiBwYWdlY29sb3I9IiNmZmZmZmYiIHNob3dncmlkPSJmYWxzZSI+JiN4YTsJPC9zb2RpcG9kaTpuYW1lZHZpZXc+JiN4YTs8ZyBpZD0iZzQxMDEiIHRyYW5zZm9ybT0idHJhbnNsYXRlKDAsLTIuNDE4NjIyNWUtNSkiPiYjeGE7CTx0aXRsZSBpZD0idGl0bGU0MDgxIj5QYWdlLTE8L3RpdGxlPiYjeGE7CTxnIGlkPSJncm91cDQwMDYtMSI+JiN4YTsJCTx0aXRsZSBpZD0idGl0bGU0MDgzIj5EYXRhIFBpcGVsaW5lczwvdGl0bGU+JiN4YTsJCTxnIGlkPSJzaGFwZTQwMDctMiIgdHJhbnNmb3JtPSJ0cmFuc2xhdGUoMy43MjAzNSwtMS44NTUxNSkiPiYjeGE7CQkJPHRpdGxlIGlkPSJ0aXRsZTQwODUiPlNoZWV0LjQwMDc8L3RpdGxlPiYjeGE7CQkJPHBhdGggaWQ9InBhdGg0MDg3IiBpbmtzY2FwZTpjb25uZWN0b3ItY3VydmF0dXJlPSIwIiBzdHlsZT0iZmlsbDojM0Y1NzY1OyIgZD0iTTAsMy43MnYxMi42MmgxOS4yMlYzLjcySDB6Ii8+JiN4YTsJCTwvZz4mI3hhOwkJPGcgaWQ9InNoYXBlNDAwOC00Ij4mI3hhOwkJCTx0aXRsZSBpZD0idGl0bGU0MDkwIj5TaGVldC40MDA4PC90aXRsZT4mI3hhOwkJCTxwYXRoIGlkPSJwYXRoNDA5MiIgaW5rc2NhcGU6Y29ubmVjdG9yLWN1cnZhdHVyZT0iMCIgc3R5bGU9ImZpbGw6IzNGNTc2NTsiIGQ9Ik0wLDIuMzdjMCwxMS42MiwwLDExLjYyLDAsMTEuNjIgICAgIGMwLDEuNDIsMC45NiwyLjM1LDIuMzgsMi4zNWMxLjI4LDAsMi4zNy0wLjkzLDIuMzctMi4zNWMwLTExLjYyLDAtMTEuNjIsMC0xMS42MkM0Ljc1LDEuMTEsMy42NiwwLDIuMzgsMEMwLjk2LDAsMCwxLjExLDAsMi4zN3ogICAgICIvPiYjeGE7CQk8L2c+JiN4YTsJCTxnIGlkPSJzaGFwZTQwMDktNiIgdHJhbnNmb3JtPSJ0cmFuc2xhdGUoMjAuNjY4NikiPiYjeGE7CQkJPHRpdGxlIGlkPSJ0aXRsZTQwOTUiPlNoZWV0LjQwMDk8L3RpdGxlPiYjeGE7CQkJPHBhdGggaWQ9InBhdGg0MDk3IiBpbmtzY2FwZTpjb25uZWN0b3ItY3VydmF0dXJlPSIwIiBzdHlsZT0iZmlsbDojM0Y1NzY1OyIgZD0iTTAsMi4zN2MwLDExLjYyLDAsMTEuNjIsMCwxMS42MiAgICAgYzAsMS40MiwxLjA3LDIuMzUsMi4yNywyLjM1YzEuMjIsMCwyLjI4LTAuOTMsMi4yOC0yLjM1YzAtMTEuNjIsMC0xMS42MiwwLTExLjYyQzQuNTUsMS4xMSwzLjQ5LDAsMi4yNywwQzEuMDcsMCwwLDEuMTEsMCwyLjM3eiAgICAgIi8+JiN4YTsJCTwvZz4mI3hhOwk8L2c+JiN4YTs8L2c+JiN4YTs8L3N2Zz4=;" vertex="1" parent="RzjJ_zKFOmG12Z4Fz9ne-44">
          <mxGeometry x="355.5" y="17" width="25" height="16" as="geometry"/>
        </mxCell>
        <mxCell id="RzjJ_zKFOmG12Z4Fz9ne-56" value="" style="edgeStyle=orthogonalEdgeStyle;rounded=0;orthogonalLoop=1;jettySize=auto;html=1;" edge="1" parent="RzjJ_zKFOmG12Z4Fz9ne-44" source="RzjJ_zKFOmG12Z4Fz9ne-57" target="RzjJ_zKFOmG12Z4Fz9ne-55">
          <mxGeometry relative="1" as="geometry"/>
        </mxCell>
        <mxCell id="RzjJ_zKFOmG12Z4Fz9ne-57" value="" style="shape=image;verticalLabelPosition=bottom;labelBackgroundColor=#ffffff;verticalAlign=top;aspect=fixed;imageAspect=0;image=data:image/svg+xml,PHN2ZyB4bWxuczpjYz0iaHR0cDovL2NyZWF0aXZlY29tbW9ucy5vcmcvbnMjIiB4bWxuczpkYz0iaHR0cDovL3B1cmwub3JnL2RjL2VsZW1lbnRzLzEuMS8iIHhtbG5zOmlua3NjYXBlPSJodHRwOi8vd3d3Lmlua3NjYXBlLm9yZy9uYW1lc3BhY2VzL2lua3NjYXBlIiB4bWxuczpyZGY9Imh0dHA6Ly93d3cudzMub3JnLzE5OTkvMDIvMjItcmRmLXN5bnRheC1ucyMiIHhtbG5zOnNvZGlwb2RpPSJodHRwOi8vc29kaXBvZGkuc291cmNlZm9yZ2UubmV0L0RURC9zb2RpcG9kaS0wLmR0ZCIgeG1sbnM6c3ZnPSJodHRwOi8vd3d3LnczLm9yZy8yMDAwL3N2ZyIgeG1sbnM9Imh0dHA6Ly93d3cudzMub3JnLzIwMDAvc3ZnIiB4bWxuczp4bGluaz0iaHR0cDovL3d3dy53My5vcmcvMTk5OS94bGluayIgdmVyc2lvbj0iMS4xIiBpZD0ic3ZnNDEwMyIgaW5rc2NhcGU6dmVyc2lvbj0iMC45Mi4zICgyNDA1NTQ2LCAyMDE4LTAzLTExKSIgc29kaXBvZGk6ZG9jbmFtZT0iZGF0YV9waXBlbGluZXMuc3ZnIiB4PSIwcHgiIHk9IjBweCIgdmlld0JveD0iMCAwIDI1LjIyIDE2LjM0IiBzdHlsZT0iZW5hYmxlLWJhY2tncm91bmQ6bmV3IDAgMCAyNS4yMiAxNi4zNDsiIHhtbDpzcGFjZT0icHJlc2VydmUiPiYjeGE7PHNvZGlwb2RpOm5hbWVkdmlldyBib3JkZXJjb2xvcj0iIzY2NjY2NiIgYm9yZGVyb3BhY2l0eT0iMSIgZml0LW1hcmdpbi1ib3R0b209IjAiIGZpdC1tYXJnaW4tbGVmdD0iMCIgZml0LW1hcmdpbi1yaWdodD0iMCIgZml0LW1hcmdpbi10b3A9IjAiIGdyaWR0b2xlcmFuY2U9IjEwIiBndWlkZXRvbGVyYW5jZT0iMTAiIGlkPSJuYW1lZHZpZXc0MTA1IiBpbmtzY2FwZTpjdXJyZW50LWxheWVyPSJzdmc0MTAzIiBpbmtzY2FwZTpjeD0iMjUuMTg1MDk2IiBpbmtzY2FwZTpjeT0iNS4yMjQxOTYzIiBpbmtzY2FwZTpwYWdlb3BhY2l0eT0iMCIgaW5rc2NhcGU6cGFnZXNoYWRvdz0iMiIgaW5rc2NhcGU6d2luZG93LWhlaWdodD0iMTAxNyIgaW5rc2NhcGU6d2luZG93LW1heGltaXplZD0iMSIgaW5rc2NhcGU6d2luZG93LXdpZHRoPSIxOTIwIiBpbmtzY2FwZTp3aW5kb3cteD0iLTgiIGlua3NjYXBlOndpbmRvdy15PSItOCIgaW5rc2NhcGU6em9vbT0iMTkuODk0NjM2IiBvYmplY3R0b2xlcmFuY2U9IjEwIiBwYWdlY29sb3I9IiNmZmZmZmYiIHNob3dncmlkPSJmYWxzZSI+JiN4YTsJPC9zb2RpcG9kaTpuYW1lZHZpZXc+JiN4YTs8ZyBpZD0iZzQxMDEiIHRyYW5zZm9ybT0idHJhbnNsYXRlKDAsLTIuNDE4NjIyNWUtNSkiPiYjeGE7CTx0aXRsZSBpZD0idGl0bGU0MDgxIj5QYWdlLTE8L3RpdGxlPiYjeGE7CTxnIGlkPSJncm91cDQwMDYtMSI+JiN4YTsJCTx0aXRsZSBpZD0idGl0bGU0MDgzIj5EYXRhIFBpcGVsaW5lczwvdGl0bGU+JiN4YTsJCTxnIGlkPSJzaGFwZTQwMDctMiIgdHJhbnNmb3JtPSJ0cmFuc2xhdGUoMy43MjAzNSwtMS44NTUxNSkiPiYjeGE7CQkJPHRpdGxlIGlkPSJ0aXRsZTQwODUiPlNoZWV0LjQwMDc8L3RpdGxlPiYjeGE7CQkJPHBhdGggaWQ9InBhdGg0MDg3IiBpbmtzY2FwZTpjb25uZWN0b3ItY3VydmF0dXJlPSIwIiBzdHlsZT0iZmlsbDojM0Y1NzY1OyIgZD0iTTAsMy43MnYxMi42MmgxOS4yMlYzLjcySDB6Ii8+JiN4YTsJCTwvZz4mI3hhOwkJPGcgaWQ9InNoYXBlNDAwOC00Ij4mI3hhOwkJCTx0aXRsZSBpZD0idGl0bGU0MDkwIj5TaGVldC40MDA4PC90aXRsZT4mI3hhOwkJCTxwYXRoIGlkPSJwYXRoNDA5MiIgaW5rc2NhcGU6Y29ubmVjdG9yLWN1cnZhdHVyZT0iMCIgc3R5bGU9ImZpbGw6IzNGNTc2NTsiIGQ9Ik0wLDIuMzdjMCwxMS42MiwwLDExLjYyLDAsMTEuNjIgICAgIGMwLDEuNDIsMC45NiwyLjM1LDIuMzgsMi4zNWMxLjI4LDAsMi4zNy0wLjkzLDIuMzctMi4zNWMwLTExLjYyLDAtMTEuNjIsMC0xMS42MkM0Ljc1LDEuMTEsMy42NiwwLDIuMzgsMEMwLjk2LDAsMCwxLjExLDAsMi4zN3ogICAgICIvPiYjeGE7CQk8L2c+JiN4YTsJCTxnIGlkPSJzaGFwZTQwMDktNiIgdHJhbnNmb3JtPSJ0cmFuc2xhdGUoMjAuNjY4NikiPiYjeGE7CQkJPHRpdGxlIGlkPSJ0aXRsZTQwOTUiPlNoZWV0LjQwMDk8L3RpdGxlPiYjeGE7CQkJPHBhdGggaWQ9InBhdGg0MDk3IiBpbmtzY2FwZTpjb25uZWN0b3ItY3VydmF0dXJlPSIwIiBzdHlsZT0iZmlsbDojM0Y1NzY1OyIgZD0iTTAsMi4zN2MwLDExLjYyLDAsMTEuNjIsMCwxMS42MiAgICAgYzAsMS40MiwxLjA3LDIuMzUsMi4yNywyLjM1YzEuMjIsMCwyLjI4LTAuOTMsMi4yOC0yLjM1YzAtMTEuNjIsMC0xMS42MiwwLTExLjYyQzQuNTUsMS4xMSwzLjQ5LDAsMi4yNywwQzEuMDcsMCwwLDEuMTEsMCwyLjM3eiAgICAgIi8+JiN4YTsJCTwvZz4mI3hhOwk8L2c+JiN4YTs8L2c+JiN4YTs8L3N2Zz4=;" vertex="1" parent="RzjJ_zKFOmG12Z4Fz9ne-44">
          <mxGeometry x="272.5" y="17" width="25" height="16" as="geometry"/>
        </mxCell>
        <mxCell id="RzjJ_zKFOmG12Z4Fz9ne-58" value="" style="edgeStyle=orthogonalEdgeStyle;rounded=0;orthogonalLoop=1;jettySize=auto;html=1;" edge="1" parent="RzjJ_zKFOmG12Z4Fz9ne-44" source="RzjJ_zKFOmG12Z4Fz9ne-49" target="RzjJ_zKFOmG12Z4Fz9ne-57">
          <mxGeometry relative="1" as="geometry"/>
        </mxCell>
        <mxCell id="RzjJ_zKFOmG12Z4Fz9ne-59" value="积分链3" style="text;html=1;strokeColor=none;fillColor=none;align=center;verticalAlign=middle;whiteSpace=wrap;rounded=0;" vertex="1" parent="1">
          <mxGeometry x="94" y="397" width="50" height="20" as="geometry"/>
        </mxCell>
        <mxCell id="RzjJ_zKFOmG12Z4Fz9ne-64" value="" style="html=1;shadow=0;dashed=0;align=center;verticalAlign=middle;shape=mxgraph.arrows2.uTurnArrow;dy=11;arrowHead=43;dx2=25;fillColor=#d5e8d4;strokeColor=#82b366;" vertex="1" parent="1">
          <mxGeometry x="-40" y="90" width="30" height="260" as="geometry"/>
        </mxCell>
        <mxCell id="RzjJ_zKFOmG12Z4Fz9ne-65" value="" style="html=1;shadow=0;dashed=0;align=center;verticalAlign=middle;shape=mxgraph.arrows2.uTurnArrow;dy=11;arrowHead=43;dx2=25;fillColor=#e1d5e7;strokeColor=#9673a6;rotation=-180;" vertex="1" parent="1">
          <mxGeometry x="860" y="90" width="30" height="260" as="geometry"/>
        </mxCell>
        <mxCell id="RzjJ_zKFOmG12Z4Fz9ne-68" value="" style="endArrow=classic;startArrow=classic;html=1;entryX=0.5;entryY=1;entryDx=0;entryDy=0;exitX=0.5;exitY=0;exitDx=0;exitDy=0;" edge="1" parent="1">
          <mxGeometry width="50" height="50" relative="1" as="geometry">
            <mxPoint x="449.5" y="389" as="sourcePoint"/>
            <mxPoint x="449.5" y="371" as="targetPoint"/>
          </mxGeometry>
        </mxCell>
      </root>
    </mxGraphModel>
  </diagram>
</mxfile>
